<?xml version="1.0" standalone="no"?>
<!DOCTYPE svg PUBLIC "-//W3C//DTD SVG 20010904//EN"
 "http://www.w3.org/TR/2001/REC-SVG-20010904/DTD/svg10.dtd">
<svg version="1.0" xmlns="http://www.w3.org/2000/svg"
 width="3370.000000pt" height="3368.000000pt" viewBox="0 0 3370.000000 3368.000000"
 preserveAspectRatio="xMidYMid meet">

<g transform="translate(0.000000,3368.000000) scale(0.100000,-0.100000)"
fill="#000000" stroke="none">
<path d="M16135 33660 c-1382 -62 -2668 -271 -3970 -645 -1810 -520 -3554
-1363 -5096 -2466 -1176 -839 -2245 -1831 -3170 -2941 -2576 -3090 -3952
-6967 -3895 -10983 7 -521 22 -825 62 -1280 290 -3293 1537 -6408 3603 -8998
1524 -1910 3429 -3458 5601 -4551 871 -439 1662 -758 2585 -1046 3722 -1158
7827 -968 11426 529 569 236 1221 550 1664 801 272 154 367 209 525 303 1042
624 1929 1284 2810 2091 207 190 680 655 677 666 -1 5 48 61 109 127 709 759
1237 1421 1774 2223 1591 2378 2532 5072 2775 7945 65 769 72 1756 19 2540
-187 2764 -1036 5398 -2498 7750 -999 1607 -2290 3060 -3786 4260 -2087 1673
-4557 2829 -7165 3354 -800 161 -1521 253 -2450 312 -218 13 -1351 20 -1600 9z
m1365 -130 c3345 -138 6488 -1231 9180 -3193 3370 -2456 5716 -6113 6534
-10187 236 -1175 336 -2272 323 -3510 -6 -512 -11 -646 -42 -1070 -159 -2149
-743 -4267 -1711 -6202 -612 -1223 -1379 -2377 -2266 -3408 -251 -291 -585
-658 -592 -648 -1 2 -10 48 -20 103 -50 281 -157 730 -251 1053 -423 1465
-1120 2816 -2064 4000 -429 538 -734 854 -959 996 -147 92 -393 189 -612 240
-63 15 -122 29 -131 32 -13 4 19 64 156 292 364 607 583 1036 770 1508 349
881 478 1752 379 2559 -107 879 -427 1783 -858 2428 -258 386 -488 634 -888
953 -296 237 -400 328 -558 490 -155 159 -238 261 -349 424 -281 414 -414 802
-525 1530 -79 518 -92 833 -72 1805 13 635 -13 934 -120 1420 -157 709 -453
1381 -979 2225 -752 1206 -1694 1870 -2995 2111 -422 78 -958 91 -1370 33
-867 -122 -1650 -506 -2310 -1131 l-85 -81 -90 81 c-333 297 -671 464 -1080
533 -143 25 -460 25 -620 0 -611 -93 -1193 -407 -1675 -902 -182 -187 -328
-379 -458 -599 -147 -249 -324 -801 -508 -1581 -123 -525 -204 -970 -309
-1699 -35 -244 -89 -557 -144 -835 -48 -245 -85 -446 -81 -448 3 -1 71 29 151
67 296 141 724 294 911 326 45 7 37 -31 83 385 19 173 38 338 41 366 l7 52
186 46 c322 79 527 106 812 106 480 0 895 -128 1219 -375 87 -66 200 -174 200
-191 0 -6 9 -19 19 -28 22 -20 83 -17 180 10 163 46 237 179 163 295 -73 114
-305 260 -537 338 -387 129 -981 156 -1563 71 -159 -24 -419 -79 -557 -119
-55 -15 -101 -27 -103 -26 -5 4 49 280 77 400 113 464 337 921 641 1300 225
282 583 624 970 927 530 414 1059 628 1680 677 460 37 1146 16 1780 -55 388
-43 1027 -141 1070 -164 11 -6 32 -29 49 -53 76 -111 250 -242 394 -297 84
-33 191 -60 239 -60 18 0 33 -8 41 -22 8 -13 93 -147 189 -298 488 -766 718
-1161 953 -1635 115 -233 225 -468 225 -482 0 -2 -5 -1 -11 3 -7 4 -50 10 -98
15 -47 4 -138 13 -201 19 -148 15 -644 6 -840 -14 -779 -83 -1475 -298 -2158
-666 -139 -76 -182 -115 -182 -169 0 -32 7 -45 39 -74 45 -41 124 -72 222 -88
101 -17 159 -2 233 61 283 239 720 443 1316 615 468 135 1032 228 1368 226 53
-1 122 0 152 1 41 1 71 -5 115 -25 33 -15 68 -25 78 -24 14 2 46 -68 171 -373
85 -206 183 -442 219 -525 l64 -150 54 -19 c170 -59 341 -126 470 -183 137
-60 147 -66 153 -95 17 -83 22 -83 -156 -4 -163 73 -457 190 -463 184 -3 -3
206 -472 344 -773 81 -174 253 -532 459 -954 l100 -204 12 74 c7 41 16 77 19
81 4 4 21 -20 38 -55 l30 -62 -24 -83 -24 -84 30 -81 c42 -113 58 -174 80
-307 48 -287 51 -544 9 -970 -31 -313 -33 -976 -3 -1265 10 -104 18 -235 17
-290 -7 -296 -79 -657 -229 -1154 -247 -821 -539 -1347 -991 -1782 -384 -371
-837 -645 -1347 -815 -189 -62 -314 -90 -685 -149 -546 -87 -846 -165 -1280
-332 -506 -195 -777 -260 -1054 -250 -176 6 -217 17 -426 117 -192 91 -255
114 -380 136 -108 18 -328 15 -457 -6 -100 -17 -212 -4 -326 37 -242 86 -418
229 -601 484 -269 374 -381 497 -691 754 -587 488 -948 851 -1201 1210 -330
468 -552 999 -631 1505 -24 158 -24 490 0 650 21 137 125 755 132 787 5 20 -5
28 -72 62 -90 45 -238 141 -333 214 -373 289 -639 673 -802 1156 -40 119 -63
202 -73 261 -20 120 -42 203 -48 185 -3 -11 -27 -108 -52 -215 -136 -582 -246
-919 -405 -1245 -162 -330 -306 -565 -575 -936 -258 -354 -351 -512 -448 -759
-103 -263 -219 -745 -274 -1140 -23 -161 -25 -706 -4 -845 48 -324 129 -581
258 -825 100 -190 130 -223 568 -632 216 -201 624 -610 905 -908 556 -588 716
-809 905 -1249 170 -395 226 -654 195 -897 -30 -246 -140 -466 -324 -650 -88
-88 -93 -92 -146 -98 -73 -9 -462 -86 -725 -143 -127 -27 -223 -43 -243 -40
-49 9 -215 90 -311 154 -110 73 -259 222 -339 341 -35 51 -88 145 -119 208
-36 75 -58 111 -63 103 -13 -24 -49 -171 -64 -261 -57 -330 -6 -654 147 -928
23 -41 43 -78 45 -82 2 -4 -31 -44 -72 -88 -513 -549 -1028 -1240 -1448 -1945
-498 -837 -980 -1939 -1237 -2830 -75 -263 -170 -663 -202 -855 -6 -41 -15
-81 -19 -88 -16 -31 -818 746 -1188 1150 -2266 2479 -3710 5477 -4216 8753
-179 1161 -238 2423 -166 3580 217 3473 1468 6717 3635 9425 558 697 1264
1442 1920 2025 2815 2504 6326 3970 10070 4205 465 30 1259 39 1715 20z m3451
-10631 c66 -34 126 -71 134 -83 34 -53 116 -388 147 -601 20 -140 17 -600 -5
-750 -28 -184 -25 -179 -63 -102 l-34 66 15 128 c42 361 4 756 -110 1128 l-24
80 -89 48 c-78 41 -90 51 -96 78 -8 39 -8 69 0 69 3 0 59 -27 125 -61z m-1536
-8301 c-6 -46 -18 -71 -85 -166 -214 -306 -397 -676 -540 -1088 -173 -502
-221 -967 -139 -1368 63 -312 243 -679 475 -967 99 -124 252 -285 384 -407 63
-59 116 -109 118 -113 5 -12 -96 -129 -202 -235 -784 -782 -2144 -1075 -3471
-749 -432 106 -843 279 -1230 518 -173 107 -161 81 -120 257 110 474 152 1012
126 1610 -21 482 -68 760 -206 1225 -107 358 -120 507 -59 698 12 36 22 49 42
55 15 4 106 7 202 7 164 -1 180 -3 260 -29 47 -15 164 -65 260 -111 96 -46
202 -91 235 -100 302 -79 684 -9 1334 244 395 154 751 243 1276 321 298 44
483 86 683 154 170 59 396 159 542 240 63 35 116 63 118 61 2 -2 1 -28 -3 -57z
m2672 -7303 c27 -11 33 -20 33 -44 0 -49 -38 -97 -101 -125 -68 -31 -84 -32
-125 -7 -43 26 -59 76 -40 122 15 35 39 61 66 72 22 9 129 -3 167 -18z m281
-151 c37 -32 42 -40 42 -79 0 -31 -5 -47 -17 -54 -20 -11 -53 3 -53 22 -1 7
-19 24 -40 39 -31 21 -40 34 -40 56 0 61 47 68 108 16z m-661 -176 c5 -7 9
-30 8 -51 -2 -49 -36 -84 -106 -107 -61 -21 -89 -13 -89 24 0 28 17 49 83 105
49 41 86 52 104 29z m1015 -104 c29 -26 57 -50 62 -55 13 -11 -13 -86 -31 -94
-21 -7 -94 13 -116 33 -12 11 -16 24 -12 40 4 17 0 30 -14 44 -25 23 -26 41
-5 62 27 27 60 19 116 -30z m-549 -74 c9 -11 23 -20 31 -20 20 0 46 -39 46
-68 0 -26 -41 -72 -64 -72 -9 0 -31 16 -50 35 -20 19 -43 35 -53 35 -27 0 -63
28 -63 49 0 24 22 42 63 51 53 13 72 11 90 -10z m-345 -152 c34 -34 -4 -120
-69 -153 -41 -22 -105 -19 -129 5 -27 27 -25 51 8 82 66 63 160 96 190 66z
m-554 -197 c16 -17 16 -22 2 -54 -12 -31 -13 -37 0 -48 22 -18 16 -56 -15 -91
-28 -31 -30 -32 -48 -15 -11 9 -26 17 -34 17 -8 0 -29 9 -46 20 -60 36 -39 86
71 168 35 27 48 27 70 3z m1556 10 c0 -17 -165 -89 -311 -136 -135 -44 -149
-47 -177 -34 l-30 13 39 47 c40 48 48 69 26 69 -13 0 -94 -90 -90 -100 1 -3
-25 -5 -57 -5 -56 0 -59 1 -62 25 -2 14 -10 26 -20 28 -14 3 -18 -4 -18 -30 0
-33 -3 -35 -57 -53 -69 -23 -93 -22 -112 5 -13 19 -51 28 -51 12 0 -19 33 -52
53 -53 21 0 21 -1 3 -12 -11 -7 -41 -32 -68 -55 -26 -24 -53 -42 -60 -39 -8 3
-6 6 5 6 11 1 17 7 14 14 -2 6 -9 11 -15 10 -67 -14 -158 -24 -201 -21 -34 2
-56 -1 -58 -8 -5 -16 67 -26 141 -20 l61 5 -75 -19 c-134 -35 -322 -71 -354
-68 -30 3 -29 4 40 51 97 64 294 157 435 205 185 64 539 138 779 165 72 8 220
7 220 -2z m-479 -241 c7 -66 24 -122 91 -293 42 -109 62 -144 134 -240 136
-181 244 -421 244 -541 0 -49 -3 -55 -38 -83 -130 -105 -302 -154 -469 -133
-102 13 -149 34 -162 73 -14 39 -14 133 0 314 13 165 2 311 -32 434 -26 95
-106 263 -164 344 -50 70 -50 67 29 115 87 52 154 69 261 67 l100 -2 6 -55z
m-534 -86 c-3 -3 -12 -4 -19 -1 -8 3 -5 6 6 6 11 1 17 -2 13 -5z"/>
<path d="M11105 23134 c-256 -70 -582 -193 -841 -319 l-171 -83 -62 -313 c-34
-173 -92 -453 -127 -624 l-65 -310 16 -120 c91 -670 382 -1237 827 -1611 139
-116 419 -296 435 -280 4 3 17 70 29 149 48 297 58 405 58 632 -1 207 -3 237
-44 510 -42 282 -43 298 -48 594 -4 301 9 669 43 1176 16 236 42 540 51 593 2
17 1 32 -3 31 -4 0 -48 -11 -98 -25z"/>
<path d="M18240 22343 c-391 -40 -763 -169 -1052 -365 -61 -41 -75 -71 -37
-83 32 -10 59 0 155 61 332 209 705 316 1109 317 339 1 646 -68 927 -209 94
-47 130 -53 166 -28 42 29 28 48 -75 97 -235 112 -472 178 -738 207 -84 9
-377 11 -455 3z"/>
<path d="M17295 22226 c-90 -29 -197 -85 -260 -137 -58 -48 -137 -139 -132
-154 2 -5 26 -10 52 -9 44 0 51 4 79 40 94 120 192 185 349 229 45 12 57 20
57 35 0 27 -54 26 -145 -4z"/>
<path d="M12615 22144 c-271 -28 -596 -114 -785 -207 -53 -26 -65 -36 -65 -56
0 -49 25 -48 162 6 320 127 564 175 883 175 184 0 292 -10 453 -43 202 -41
323 -102 397 -202 29 -39 40 -47 67 -47 31 0 73 28 73 48 0 22 -66 104 -113
141 -96 73 -230 121 -457 161 -99 18 -172 23 -350 25 -124 2 -243 1 -265 -1z"/>
<path d="M13763 22043 c-22 -8 -14 -30 22 -66 32 -32 35 -40 35 -91 0 -47 3
-56 18 -56 29 0 42 21 42 68 0 57 -24 107 -65 132 -18 11 -34 20 -36 19 -2 0
-10 -3 -16 -6z"/>
<path d="M11470 21612 c-1 -69 73 -286 137 -399 42 -76 26 -84 -21 -10 -48 76
-82 146 -111 229 -15 44 -25 63 -25 47 0 -40 45 -163 94 -255 33 -61 40 -81
26 -74 -60 32 -142 195 -179 355 -6 28 -9 33 -10 15 -2 -38 47 -208 80 -276
15 -33 48 -82 71 -109 l43 -49 -43 24 c-71 40 -148 129 -194 225 -22 47 -43
83 -46 81 -7 -7 36 -123 61 -166 43 -74 101 -141 148 -172 38 -24 49 -37 49
-57 1 -51 36 -109 77 -127 35 -15 50 -15 208 0 327 32 413 37 800 43 379 5
584 -1 956 -29 143 -11 159 -10 183 5 14 10 26 22 26 29 0 6 6 16 14 22 8 6
16 31 18 54 l3 44 -93 40 c-177 76 -362 110 -772 143 -534 44 -936 25 -1229
-56 -73 -21 -75 -21 -89 -3 -37 51 -134 269 -156 354 -14 52 -25 84 -26 72z"/>
<path d="M19790 21560 c0 -61 -71 -177 -139 -228 l-30 -22 -83 24 c-220 63
-520 110 -816 127 -522 30 -1091 -56 -1572 -238 -80 -30 -165 -62 -190 -72
-72 -26 -73 -28 -68 -87 6 -67 43 -118 114 -154 42 -22 61 -25 139 -24 73 0
128 10 295 52 217 54 408 90 630 117 179 23 689 31 887 16 260 -21 333 -36
555 -120 67 -24 162 -28 211 -7 62 25 93 81 112 198 4 29 16 45 58 78 111 88
227 252 227 323 0 27 -3 23 -30 -30 -36 -71 -173 -222 -236 -259 -35 -21 -47
-23 -64 -14 -20 11 -20 12 19 56 52 59 131 213 131 254 0 27 -7 19 -46 -60
-66 -131 -173 -237 -207 -204 -3 4 9 25 27 48 51 63 76 121 83 191 3 36 3 65
-1 65 -3 0 -6 -14 -6 -30z"/>
<path d="M18684 20890 c-197 -14 -444 -53 -444 -71 0 -12 12 -12 105 6 241 47
609 59 864 29 124 -14 154 -14 138 2 -24 24 -471 47 -663 34z"/>
<path d="M12200 20859 c-111 -13 -282 -48 -395 -81 -134 -40 -255 -87 -255
-100 0 -6 7 -7 18 -3 171 72 411 136 603 161 166 21 515 15 653 -11 56 -10 92
-13 98 -7 11 11 -62 25 -207 42 -105 12 -407 11 -515 -1z"/>
<path d="M19280 20768 c-19 -6 -29 -13 -22 -15 7 -3 27 0 44 6 43 15 108 14
158 -4 49 -17 60 -18 60 -6 0 28 -165 41 -240 19z"/>
<path d="M16685 19536 c-17 -12 -14 -18 48 -95 115 -141 164 -267 154 -393 -8
-93 -47 -177 -109 -233 -26 -23 -48 -45 -48 -48 0 -14 35 -15 59 -2 39 19 104
96 130 150 88 188 34 387 -162 598 -38 41 -45 43 -72 23z"/>
<path d="M13632 19495 c-109 -51 -209 -197 -248 -360 -23 -102 -15 -233 19
-300 30 -60 79 -108 129 -129 34 -14 38 -14 59 3 l23 19 -40 20 c-120 61 -163
215 -114 406 40 158 111 263 208 309 46 22 62 49 32 54 -8 2 -39 -8 -68 -22z"/>
<path d="M13567 18922 c-20 -21 -37 -42 -37 -49 0 -24 60 -80 102 -96 24 -9
95 -28 158 -42 157 -35 189 -52 266 -146 141 -170 296 -239 540 -239 240 0
469 47 648 133 l112 54 225 -4 c195 -3 230 -1 274 14 67 24 86 57 63 107 -42
88 -207 105 -398 40 -70 -24 -103 -39 -286 -135 -149 -78 -335 -124 -549 -135
-134 -7 -228 10 -331 61 -60 29 -89 53 -173 144 -56 61 -115 116 -132 123 -16
7 -29 17 -29 21 0 15 -99 109 -109 103 -5 -4 -25 3 -43 14 -52 30 -136 56
-203 63 -59 5 -61 4 -98 -31z"/>
<path d="M12772 17260 c-23 -5 -65 -21 -93 -37 -82 -44 -161 -147 -133 -172
16 -15 63 -21 70 -10 10 17 96 69 114 69 9 0 59 -34 111 -76 330 -264 679
-428 1178 -553 342 -86 596 -116 986 -115 236 1 321 5 457 22 466 61 861 175
1288 372 131 61 227 119 397 241 l81 59 114 0 c62 0 142 -5 177 -11 79 -12 96
-1 96 66 0 38 -5 50 -38 82 -36 36 -40 38 -105 38 -55 0 -80 -6 -142 -34 -41
-19 -93 -49 -115 -66 -47 -38 -120 -76 -265 -138 -58 -25 -168 -74 -245 -110
-411 -189 -801 -303 -1255 -364 -169 -22 -714 -26 -880 -5 -395 49 -789 154
-1115 297 -72 31 -191 83 -265 114 -195 83 -400 182 -400 194 0 9 25 8 134 -6
12 -1 25 8 35 26 14 24 14 30 1 54 -32 57 -102 80 -188 63z"/>
<path d="M14670 15934 c-163 -24 -328 -85 -317 -117 7 -21 38 -19 95 6 113 50
359 84 491 68 100 -13 165 -45 214 -105 21 -24 46 -48 58 -51 22 -7 66 17 76
41 9 23 -44 72 -118 109 -124 63 -294 79 -499 49z"/>
<path d="M22485 6395 c-14 -20 -51 -50 -81 -67 -36 -20 -52 -34 -46 -40 22
-22 182 95 182 132 0 22 -29 8 -55 -25z"/>
<path d="M21755 6230 c-4 -7 -1 -16 6 -21 21 -13 96 -22 124 -15 43 11 28 24
-32 28 -32 2 -65 8 -74 12 -10 4 -20 2 -24 -4z"/>
</g>
</svg>
