<svg version="1.2" xmlns="http://www.w3.org/2000/svg" viewBox="0 0 56 57" width="56" height="57"><style>.a{fill:#f57c00}.b{fill:#999}.c{fill:#666}</style><path fill-rule="evenodd" class="a" d="m33 56c-2 0-3.8-1.2-4.6-3.1-0.8-1.9-0.4-4 1.1-5.4 1.4-1.5 3.5-1.9 5.4-1.1 1.9 0.8 3.1 2.6 3.1 4.6q0 1-0.4 1.9-0.4 0.9-1.1 1.6-0.7 0.7-1.6 1.1-0.9 0.4-1.9 0.4zm0-8c-1.2 0-2.3 0.7-2.8 1.9-0.4 1.1-0.2 2.4 0.7 3.2 0.8 0.9 2.1 1.1 3.2 0.7 1.2-0.5 1.9-1.6 1.9-2.8q0-0.6-0.2-1.1-0.3-0.6-0.7-1-0.4-0.4-1-0.7-0.5-0.2-1.1-0.2z"/><path fill-rule="evenodd" class="a" d="m48 46c-1.6 0-3.1-1-3.7-2.5-0.6-1.5-0.3-3.2 0.9-4.3 1.1-1.2 2.8-1.5 4.3-0.9 1.5 0.6 2.5 2.1 2.5 3.7q0 0.8-0.3 1.5-0.3 0.8-0.9 1.3-0.5 0.6-1.3 0.9-0.7 0.3-1.5 0.3zm0-6c-0.8 0-1.5 0.5-1.8 1.2-0.4 0.8-0.2 1.6 0.4 2.2 0.6 0.6 1.4 0.8 2.2 0.4 0.7-0.3 1.2-1 1.2-1.8q0-0.4-0.2-0.8-0.1-0.3-0.4-0.6-0.3-0.3-0.6-0.4-0.4-0.2-0.8-0.2z"/><path class="b" d="m17.8 51.1q-0.7 0-1.4-0.2-0.7-0.2-1.4-0.6-0.6-0.4-1-1-0.5-0.5-0.8-1.2l-12.6-28.3q-0.4-0.9-0.5-1.9 0-1 0.4-1.9 0.3-0.9 1-1.6 0.7-0.8 1.6-1.2l21.5-9.6c0.3-0.1 0.6-0.1 0.8-0.1 0.3 0.1 0.5 0.3 0.6 0.6 0.1 0.2 0.1 0.5 0 0.8-0.1 0.2-0.3 0.4-0.6 0.5l-21.5 9.6q-0.6 0.3-1 0.7-0.4 0.5-0.6 1-0.2 0.6-0.2 1.2 0 0.6 0.3 1.1l12.6 28.3q0.2 0.6 0.7 1 0.4 0.4 1 0.6 0.5 0.2 1.1 0.2 0.7 0 1.2-0.3l6.3-2.8c0.3-0.1 0.6-0.2 0.8-0.1 0.3 0.1 0.5 0.3 0.6 0.6 0.1 0.2 0.1 0.5 0 0.8-0.1 0.2-0.3 0.4-0.6 0.5l-6.3 2.8q-0.2 0.2-0.5 0.2-0.2 0.1-0.5 0.2-0.2 0-0.5 0.1-0.3 0-0.5 0z"/><path class="c" d="m18.2 20.8q-0.2 0-0.3-0.1-0.2-0.1-0.3-0.2-0.2-0.1-0.3-0.3-0.1-0.1-0.1-0.3-0.1-0.3-0.1-0.6 0-0.3 0-0.6 0-0.4 0-0.7 0-0.3 0-0.6 0.2-0.9 0.5-1.6 0.3-0.8 0.8-1.6 0.4-0.7 1.1-1.2 0.6-0.6 1.3-1 0.1-0.1 0.1-0.1 0.1 0 0.2 0 0-0.1 0.1-0.1 0.1 0 0.1 0 0.4 0 0.7 0.2 0.2 0.3 0.3 0.6 0.1 0.3-0.1 0.7-0.1 0.3-0.4 0.4-0.6 0.3-1 0.8-0.5 0.4-0.8 0.9-0.3 0.5-0.6 1.1-0.2 0.5-0.3 1.1 0 0 0 0 0 0.1 0 0.1 0 0 0 0 0 0 0 0 0 0.2 0 0.5 0 0.2 0 0.4 0 0.3 0 0.5 0 0.3 0.1 0.5 0 0 0 0 0 0.1 0 0.1 0 0 0 0 0 0.1 0 0.1 0 0.2-0.1 0.4-0.1 0.1-0.2 0.3-0.1 0.1-0.3 0.2-0.2 0.1-0.4 0.1z"/><path class="c" d="m12.6 33q-0.2 0-0.3 0-0.2-0.1-0.3-0.2-0.1 0-0.2-0.1-0.1-0.2-0.2-0.3l-4.4-10q-0.1-0.1-0.1-0.2 0-0.1 0-0.2 0-0.1 0-0.2 0-0.1 0.1-0.2 0-0.1 0-0.1 0.1-0.1 0.2-0.2 0-0.1 0.1-0.1 0.1-0.1 0.2-0.1l10-4.5q0.2-0.1 0.4-0.1 0.1 0 0.3 0.1 0.2 0 0.3 0.1 0.2 0.1 0.3 0.3 0 0 0 0.1 0.1 0.1 0.1 0.1 0 0.1 0 0.2 0.1 0.1 0.1 0.1 0 0.2-0.1 0.4-0.1 0.2-0.2 0.3-0.1 0.1-0.3 0.2-0.1 0.1-0.3 0.1l-8.9 4 3.8 8.5q0.1 0.1 0.2 0.1 0.1 0.1 0.1 0.1 0.1 0.1 0.2 0.2 0 0.1 0 0.2 0.1 0.1 0.1 0.3 0 0.2 0 0.4-0.1 0.2-0.3 0.3-0.1 0.2-0.3 0.3l-0.2 0.1q-0.1 0-0.1 0-0.1 0-0.1 0-0.1 0-0.1 0-0.1 0-0.1 0z"/><path class="b" d="m25 42.5q-0.1 0-0.1 0-0.1 0-0.1 0-0.1 0-0.1 0-0.1 0-0.1-0.1l-10.1-4.5q-0.9-0.4-1.6-1.1-0.6-0.6-1-1.5-0.4-0.9-0.4-1.9 0-0.9 0.4-1.8 0-0.1 0-0.1 0 0 0 0 0-0.1 0-0.1 0 0 0 0l5.4-12q0 0 0 0 0 0 0 0 0 0 0 0 0 0 0 0l3.1-7v-0.2l4.2-9.2q0.4-0.9 1.1-1.6 0.8-0.7 1.7-1 0.9-0.4 1.9-0.4 1 0.1 1.9 0.5l21.9 9.8q0.9 0.4 1.6 1.1 0.7 0.7 1 1.7 0.4 0.9 0.4 1.9-0.1 1-0.5 1.9l-4.7 10.5c-0.1 0.3-0.3 0.5-0.5 0.6-0.3 0.1-0.6 0.1-0.8 0-0.3-0.1-0.5-0.3-0.6-0.6 0-0.3 0-0.5 0.1-0.8l4.7-10.5q0.3-0.6 0.3-1.2 0-0.6-0.2-1.1-0.2-0.6-0.6-1.1-0.4-0.4-1-0.6l-21.9-9.8q-0.3-0.1-0.6-0.2-0.3 0-0.5 0-0.3-0.1-0.6 0-0.3 0-0.6 0.1-0.3 0.2-0.5 0.3-0.3 0.2-0.5 0.4-0.2 0.2-0.4 0.4-0.1 0.3-0.3 0.5l-4.2 9.4v0.1l-3 6.8q0 0 0 0 0 0 0 0 0 0.1 0 0.1 0 0 0 0l-5.3 12q-0.1 0-0.1 0 0 0 0-0.1 0 0 0 0 0 0 0.1 0-0.1 0-0.1 0.1 0 0 0 0 0 0 0 0.1 0 0 0 0-0.2 0.5-0.2 1.1 0 0.6 0.2 1.1 0.2 0.5 0.6 0.9 0.4 0.5 0.9 0.7l10.1 4.5q0.3 0.2 0.5 0.5 0.2 0.3 0.1 0.6-0.1 0.4-0.4 0.6-0.2 0.2-0.6 0.2z"/><path class="c" d="m32 29.2q-0.1 0-0.1 0-0.1 0-0.1 0-0.1 0-0.1 0-0.1 0-0.1-0.1l-5.6-2.4q-0.2-0.2-0.3-0.4-0.2-0.2-0.2-0.4 0-0.3 0.1-0.5 0.1-0.2 0.3-0.4l5.2-3.8 0.1-0.1 4.4-3.1q0.1-0.1 0.2-0.2 0.2 0 0.3 0 0.1 0 0.3 0 0.1 0 0.2 0.1 0.1 0 0.2 0.1 0.1 0.1 0.2 0.2 0.1 0.2 0.1 0.3 0.1 0.1 0.1 0.3l0.7 7q0 0.4-0.2 0.7-0.3 0.3-0.7 0.4-0.4 0-0.8-0.3-0.3-0.2-0.3-0.6l-0.6-5.4-3 2.3h-0.1l-3.8 2.7 4 1.8q0.3 0.2 0.4 0.5 0.1 0.3 0 0.6 0 0.3-0.3 0.5-0.2 0.2-0.5 0.2z"/><path class="c" d="m31.6 23q-0.4 0-0.8 0-0.4-0.1-0.7-0.2-0.4-0.1-0.8-0.2-0.3-0.1-0.7-0.2c-2.4-1.1-4.1-3.4-4.4-6.1-0.3-2.6 0.8-5.2 2.9-6.8 2.2-1.6 5-1.9 7.4-0.9 2.5 1 4.2 3.2 4.6 5.9q0.1 0.5 0.1 1 0 0.5-0.1 1.1-0.1 0.5-0.2 1-0.2 0.5-0.4 1-0.1 0.3-0.3 0.5-0.1 0.3-0.3 0.6-0.2 0.3-0.4 0.5-0.2 0.3-0.4 0.5c-0.2 0.2-0.5 0.3-0.7 0.4-0.3 0-0.6-0.1-0.8-0.3-0.2-0.2-0.3-0.5-0.3-0.8 0-0.2 0.1-0.5 0.3-0.7q0.2-0.2 0.3-0.3 0.2-0.2 0.3-0.4 0.1-0.2 0.2-0.4 0.1-0.2 0.2-0.4 0.2-0.4 0.3-0.8 0.1-0.3 0.2-0.7 0-0.4 0-0.8 0-0.4-0.1-0.7c-0.2-2-1.5-3.6-3.3-4.4-1.8-0.7-3.9-0.5-5.4 0.7-1.6 1.2-2.4 3.1-2.2 5 0.3 2 1.5 3.6 3.3 4.4q0.2 0.2 0.5 0.3 0.3 0 0.6 0.1 0.3 0.1 0.6 0.1 0.3 0 0.6 0 0.2 0 0.4 0.1 0.2 0.1 0.3 0.2 0.1 0.1 0.2 0.3 0.1 0.2 0.1 0.4 0 0.2-0.1 0.4-0.1 0.2-0.2 0.3-0.1 0.2-0.3 0.2-0.2 0.1-0.4 0.1z"/><path class="c" d="m36.2 19.7q-0.2 0-0.4 0-0.2-0.1-0.3-0.3-0.1-0.1-0.2-0.3-0.1-0.2-0.1-0.4c0-0.4 0.2-0.7 0.6-0.9 0.4-0.1 0.8-0.1 1.1 0.2 0.3 0.3 0.4 0.7 0.2 1.1-0.1 0.4-0.5 0.6-0.9 0.6z"/><path class="c" d="m45.3 26.3q-0.1 0-0.1 0-0.1 0-0.1 0-0.1 0-0.1 0-0.1 0-0.1-0.1-0.2 0-0.3-0.2-0.2-0.1-0.2-0.3-0.1-0.2-0.1-0.4 0-0.2 0.1-0.4l2.4-5.4-9-4-0.2-0.1q-0.2-0.1-0.3-0.2-0.2-0.2-0.2-0.4-0.1-0.1-0.1-0.3 0-0.2 0.1-0.4 0.1-0.2 0.3-0.3 0.1-0.1 0.3-0.2 0.2-0.1 0.4-0.1 0.1 0.1 0.3 0.1l10 4.5q0.1 0.1 0.2 0.1 0.1 0.1 0.1 0.1 0.1 0.1 0.2 0.2 0 0.1 0 0.2 0.1 0.1 0.1 0.2 0 0.1 0 0.2 0 0.1 0 0.2 0 0-0.1 0.1l-2.8 6.4q0 0.1-0.1 0.2-0.1 0.1-0.2 0.2-0.1 0-0.2 0.1-0.2 0-0.3 0z"/><path class="a" d="m41 55q0-0.2 0.1-0.4 0.1-0.2 0.2-0.3 0.1-0.1 0.3-0.2 0.2-0.1 0.4-0.1 0.2 0 0.4 0.1 0.2 0.1 0.3 0.2 0.1 0.1 0.2 0.3 0.1 0.2 0.1 0.4 0 0.2-0.1 0.4-0.1 0.2-0.2 0.3-0.1 0.1-0.3 0.2-0.2 0.1-0.4 0.1-0.2 0-0.4-0.1-0.2-0.1-0.3-0.2-0.1-0.1-0.2-0.3-0.1-0.2-0.1-0.4zm4.1-0.3q-0.1-0.2-0.1-0.4 0-0.2 0.1-0.4 0.1-0.2 0.3-0.3 0.1-0.1 0.3-0.2 0.2-0.1 0.4 0 0.2 0 0.4 0.1 0.1 0.1 0.3 0.2 0.1 0.2 0.2 0.4 0 0.1 0 0.3 0 0.2-0.1 0.4-0.1 0.2-0.2 0.3-0.2 0.1-0.4 0.2 0 0 0 0-0.1 0-0.1 0-0.1 0-0.1 0 0 0-0.1 0-0.1 0-0.3 0-0.1-0.1-0.2-0.2-0.2 0-0.3-0.2-0.1-0.1-0.1-0.2zm3.7-1.6q-0.1-0.2-0.1-0.4-0.1-0.1 0-0.3 0-0.2 0.1-0.4 0.1-0.2 0.2-0.3 0.2-0.1 0.4-0.2 0.2 0 0.4 0 0.2 0.1 0.4 0.2 0.1 0.1 0.3 0.2h-0.1q0.2 0.2 0.2 0.4 0.1 0.2 0 0.4 0 0.2-0.1 0.3-0.1 0.2-0.3 0.3 0 0.1-0.1 0.1-0.1 0-0.1 0.1-0.1 0-0.2 0-0.1 0-0.2 0-0.1 0-0.2 0-0.1 0-0.2-0.1-0.1-0.1-0.2-0.1-0.1-0.1-0.2-0.2zm3.1-2.6q-0.1-0.2-0.2-0.3-0.1-0.2-0.2-0.4 0-0.2 0-0.4 0.1-0.2 0.2-0.3 0.1-0.2 0.3-0.3 0.2-0.1 0.4-0.2 0.2 0 0.3 0.1 0.2 0 0.4 0.1 0.2 0.1 0.3 0.3 0.1 0.2 0.1 0.4 0 0.2 0 0.4-0.1 0.2-0.2 0.3 0 0.1-0.1 0.2-0.1 0.1-0.2 0.1-0.1 0.1-0.3 0.1-0.1 0-0.2 0-0.1 0-0.1 0-0.1 0-0.2 0-0.1 0-0.1-0.1-0.1 0-0.2 0zm2.2-3.5q-0.2-0.1-0.4-0.2-0.1-0.1-0.2-0.3-0.1-0.2-0.1-0.4 0-0.2 0-0.4 0.1-0.1 0.2-0.3 0.2-0.2 0.3-0.2 0.2-0.1 0.4-0.1 0.2-0.1 0.4 0 0.2 0.1 0.3 0.2 0.2 0.1 0.3 0.3 0.1 0.2 0.1 0.4 0 0.2-0.1 0.4 0 0.1-0.1 0.2-0.1 0.2-0.3 0.3-0.1 0.1-0.2 0.1-0.2 0.1-0.4 0 0 0 0 0-0.1 0-0.1 0 0 0-0.1 0 0 0 0 0zm-26.1-5q0-0.2 0.1-0.4 0.1-0.2 0.2-0.3 0.1-0.1 0.3-0.2 0.2-0.1 0.4-0.1 0.2 0 0.4 0.1 0.2 0.1 0.3 0.2 0.2 0.1 0.2 0.3 0.1 0.2 0.1 0.4 0 0.2-0.1 0.4 0 0.2-0.2 0.3-0.1 0.1-0.3 0.2-0.2 0.1-0.4 0.1-0.2 0-0.4-0.1-0.2-0.1-0.3-0.2-0.1-0.1-0.2-0.3-0.1-0.2-0.1-0.4zm26 0q0-0.2 0.1-0.4 0.1-0.2 0.2-0.3 0.1-0.1 0.3-0.2 0.2-0.1 0.4-0.1 0.2 0 0.4 0.1 0.2 0.1 0.3 0.2 0.2 0.1 0.2 0.3 0.1 0.2 0.1 0.4 0 0.2-0.1 0.4 0 0.2-0.2 0.3-0.1 0.1-0.3 0.2-0.2 0.1-0.4 0.1-0.2 0-0.4-0.1-0.2-0.1-0.3-0.2-0.1-0.1-0.2-0.3-0.1-0.2-0.1-0.4zm-24.7-3q-0.2-0.1-0.3-0.2-0.2-0.1-0.3-0.3 0-0.2-0.1-0.4 0-0.2 0.1-0.4 0-0.1 0.2-0.3 0.1-0.2 0.3-0.2 0.2-0.1 0.4-0.1 0.2-0.1 0.3 0 0.2 0.1 0.4 0.2 0.1 0.1 0.2 0.3 0.1 0.2 0.1 0.4 0.1 0.2 0 0.4-0.1 0.1-0.2 0.2-0.1 0.2-0.2 0.3-0.1 0.1-0.3 0.1-0.1 0.1-0.3 0 0 0-0.1 0 0 0 0 0-0.1 0-0.1 0 0 0-0.1 0zm24.1-0.7q-0.1-0.2-0.1-0.4 0.1-0.2 0.1-0.4 0.1-0.2 0.3-0.3 0.1-0.1 0.3-0.2 0.2-0.1 0.4 0 0.2 0 0.4 0.1 0.1 0 0.3 0.2 0.1 0.1 0.2 0.3 0 0.2 0 0.4 0 0.2-0.1 0.4-0.1 0.2-0.2 0.3-0.2 0.1-0.4 0.2 0 0 0 0-0.1 0-0.1 0-0.1 0-0.1 0 0 0-0.1 0-0.1 0-0.3-0.1-0.1 0-0.2-0.1-0.2-0.1-0.2-0.2-0.1-0.1-0.2-0.2zm-22.5-3.2q-0.2-0.1-0.3-0.2-0.1-0.2-0.1-0.4 0-0.2 0-0.4 0-0.2 0.2-0.3 0.1-0.2 0.2-0.3 0.2-0.1 0.4-0.1 0.2-0.1 0.4 0 0.2 0 0.4 0.1 0.1 0.1 0.2 0.3 0.1 0.2 0.2 0.4 0 0.2-0.1 0.4 0 0.2-0.1 0.3-0.1 0.1-0.2 0.2-0.1 0.1-0.2 0.1-0.1 0.1-0.2 0.1-0.1 0-0.2 0-0.1 0-0.2 0-0.1 0-0.1 0-0.1 0-0.2-0.1 0 0-0.1-0.1zm20.8-0.2q-0.1-0.2-0.2-0.4 0-0.2 0-0.4 0-0.2 0.1-0.3 0.1-0.2 0.3-0.3 0.2-0.1 0.4-0.2 0.2 0 0.4 0 0.2 0 0.3 0.1 0.2 0.1 0.3 0.3 0.1 0.2 0.2 0.3 0 0.2 0 0.4 0 0.2-0.1 0.4-0.1 0.2-0.3 0.3-0.1 0-0.1 0.1-0.1 0-0.2 0-0.1 0.1-0.1 0.1-0.1 0-0.2 0-0.1 0-0.2 0-0.1-0.1-0.3-0.1-0.1-0.1-0.1-0.2-0.1 0-0.2-0.1zm-18.2-2.8q-0.1-0.2-0.1-0.4-0.1-0.2-0.1-0.4 0.1-0.2 0.2-0.4 0.1-0.1 0.3-0.3v0.1q0.1-0.2 0.3-0.2 0.2-0.1 0.4 0 0.2 0 0.4 0.1 0.1 0.1 0.3 0.3 0.1 0.1 0.1 0.3 0.1 0.2 0 0.4 0 0.2-0.1 0.4-0.1 0.2-0.3 0.3 0 0-0.1 0.1-0.1 0-0.1 0-0.1 0-0.2 0-0.1 0.1-0.2 0.1-0.1 0-0.2-0.1-0.1 0-0.2 0-0.1-0.1-0.2-0.2-0.1-0.1-0.2-0.1zm15.5 0.1q-0.1-0.1-0.2-0.3-0.1-0.1-0.2-0.3 0-0.2 0-0.4 0.1-0.2 0.2-0.4 0.1-0.1 0.3-0.2 0.2-0.1 0.4-0.2 0.2 0 0.3 0 0.2 0.1 0.4 0.2 0.2 0.1 0.3 0.3 0 0.2 0.1 0.3 0 0.2 0 0.4-0.1 0.2-0.2 0.4 0 0.1-0.1 0.1-0.1 0.1-0.2 0.2-0.1 0-0.3 0.1-0.1 0-0.2 0-0.1 0-0.1 0-0.1 0-0.2 0-0.1-0.1-0.2-0.1 0 0-0.1-0.1zm-12-2.2q-0.1-0.2-0.1-0.4 0.1-0.2 0.1-0.4 0.1-0.2 0.3-0.3 0.1-0.1 0.3-0.2 0.2-0.1 0.4 0 0.2 0 0.4 0.1 0.2 0 0.3 0.2 0.1 0.2 0.2 0.3 0.1 0.2 0 0.4 0 0.2-0.1 0.4-0.1 0.2-0.2 0.3-0.2 0.1-0.4 0.2 0 0 0 0-0.1 0-0.1 0 0 0-0.1 0 0 0-0.1 0-0.1 0-0.3 0-0.1-0.1-0.2-0.2-0.2-0.1-0.3-0.2-0.1-0.1-0.1-0.2zm8.7 0.6q-0.2-0.1-0.4-0.2-0.2-0.1-0.3-0.3-0.1-0.2-0.1-0.4 0-0.2 0.1-0.4 0.1-0.2 0.2-0.4 0.1-0.1 0.3-0.2 0.2-0.1 0.4-0.1 0.2 0 0.3 0 0.2 0.1 0.4 0.2 0.1 0.2 0.2 0.3 0.1 0.2 0.1 0.4 0.1 0.2 0 0.4-0.1 0.1-0.2 0.3-0.1 0.1-0.2 0.2-0.1 0.1-0.3 0.1-0.1 0.1-0.3 0.1 0 0-0.1 0 0 0 0 0-0.1 0-0.1-0.1 0 0 0 0zm-4.7-1.6q0-0.2 0.1-0.4 0-0.2 0.2-0.3 0.1-0.1 0.3-0.2 0.2-0.1 0.4-0.1 0.2 0 0.4 0.1 0.2 0.1 0.3 0.2 0.1 0.1 0.2 0.3 0.1 0.2 0.1 0.4 0 0.2-0.1 0.4-0.1 0.2-0.2 0.3-0.1 0.2-0.3 0.2-0.2 0.1-0.4 0.1-0.2 0-0.4-0.1-0.2 0-0.3-0.2-0.2-0.1-0.2-0.3-0.1-0.2-0.1-0.4z"/><path class="a" d="m42.1 48.1q-0.1-0.2 0-0.4 0-0.2 0.1-0.4 0.1-0.1 0.3-0.2 0.2-0.1 0.4-0.2 0.2 0 0.4 0 0.2 0.1 0.3 0.2 0.2 0.1 0.3 0.3 0.1 0.1 0.1 0.3 0.1 0.2 0 0.4 0 0.2-0.1 0.4-0.1 0.1-0.3 0.2-0.2 0.2-0.4 0.2h-0.1q-0.2 0-0.4-0.1-0.1 0-0.3-0.1-0.1-0.1-0.2-0.3-0.1-0.1-0.1-0.3zm-3.6 0q-0.2-0.1-0.3-0.3-0.1-0.1-0.2-0.3 0-0.2 0-0.4 0.1-0.2 0.2-0.4 0-0.2 0.2-0.3 0.2-0.1 0.4-0.2 0.2 0 0.3 0 0.2 0 0.4 0.1 0.2 0.1 0.3 0.3 0.1 0.2 0.2 0.3 0 0.2 0 0.4 0 0.2-0.1 0.4-0.1 0.1-0.2 0.2-0.1 0.1-0.2 0.2-0.1 0-0.2 0.1-0.1 0-0.3 0 0 0-0.1 0-0.1 0-0.1 0-0.1 0-0.2-0.1 0 0-0.1 0zm-3.1-3.7q0-0.2 0-0.4 0-0.2 0-0.3 0.1-0.2 0.3-0.4 0.1-0.1 0.3-0.2 0.2 0 0.4 0 0.2 0 0.4 0.1 0.1 0.1 0.3 0.2 0.1 0.1 0.2 0.3 0.1 0.2 0 0.4 0 0.2 0 0.4-0.1 0.2-0.3 0.3-0.1 0.1-0.3 0.2 0 0-0.1 0 0 0-0.1 0 0 0.1 0 0.1-0.1 0-0.1 0-0.2 0-0.3-0.1-0.2 0-0.3-0.1-0.1-0.1-0.2-0.2-0.1-0.1-0.2-0.3zm0.6-3.5q-0.2 0-0.3-0.2-0.2-0.1-0.3-0.3 0-0.2-0.1-0.4 0-0.2 0.1-0.4 0.1-0.1 0.2-0.3 0.1-0.2 0.3-0.2 0.2-0.1 0.4-0.2 0.2 0 0.4 0.1 0.2 0.1 0.3 0.2 0.2 0.1 0.3 0.3 0 0.2 0 0.4 0.1 0.2 0 0.4-0.1 0.1-0.2 0.2 0 0.2-0.2 0.3-0.1 0-0.2 0.1-0.2 0-0.3 0-0.1 0-0.1 0-0.1 0-0.1 0-0.1 0-0.1 0-0.1 0-0.1 0zm2.1-3.6q-0.1-0.1-0.1-0.3 0-0.2 0-0.4 0.1-0.2 0.2-0.3 0.1-0.2 0.3-0.3 0.1-0.1 0.3-0.1 0.2-0.1 0.4 0 0.2 0 0.4 0.2 0.1 0.1 0.2 0.3 0.1 0.1 0.1 0.3 0.1 0.2 0 0.4 0 0.2-0.1 0.4-0.2 0.1-0.3 0.2-0.1 0.1-0.1 0.1-0.1 0-0.2 0 0 0.1-0.1 0.1-0.1 0-0.1 0-0.2 0-0.3-0.1-0.1 0-0.2-0.1-0.2-0.1-0.2-0.2-0.1-0.1-0.2-0.2zm4.7-0.2q-0.2-0.1-0.4-0.2-0.1-0.1-0.2-0.2-0.1-0.2-0.2-0.4 0-0.2 0-0.4 0-0.2 0.1-0.3 0.1-0.2 0.3-0.3 0.2-0.2 0.4-0.2 0.2 0 0.4 0h-0.1q0.3 0 0.4 0.1 0.2 0.1 0.3 0.3 0.1 0.2 0.2 0.4 0 0.1 0 0.3 0 0.2-0.1 0.4-0.1 0.1-0.2 0.2-0.2 0.2-0.4 0.2-0.1 0.1-0.3 0.1h-0.2z"/></svg>