<?xml version="1.0" encoding="utf-8"?><!-- Uploaded to: SVG Repo, www.svgrepo.com, Generator: SVG Repo Mixer Tools -->
<svg width="800px" height="800px" viewBox="0 0 36 36" xmlns="http://www.w3.org/2000/svg" xmlns:xlink="http://www.w3.org/1999/xlink" aria-hidden="true" role="img" class="iconify iconify--twemoji" preserveAspectRatio="xMidYMid meet"><path fill="#D99E82" d="M20 33.5v-31A1.5 1.5 0 0 0 18.5 1h-2A1.5 1.5 0 0 0 15 2.5v31a1.5 1.5 0 0 0 1.5 1.5h2a1.5 1.5 0 0 0 1.5-1.5z"></path><path fill="#E1E8ED" d="M28 21H7a2 2 0 0 1-2-2V5a2 2 0 0 1 2-2h21a2 2 0 0 1 2 2v14a2 2 0 0 1-2 2z"></path><path fill="#66757F" d="M17 14h-7a1 1 0 0 1 0-2h7a1 1 0 0 1 0 2zm8 0h-4a1 1 0 1 1 0-2h4a1 1 0 1 1 0 2zm0-5H10a1 1 0 0 1 0-2h15a1 1 0 1 1 0 2z"></path><path fill="#C1694F" d="M15 21h5v2h-5z"></path></svg>