<svg version="1.2" xmlns="http://www.w3.org/2000/svg" viewBox="0 0 438 303" width="438" height="303"><style>.a{fill:#263238}.b{fill:#ebebeb}.c{fill:#455a64}.d{fill:#407bff}.e{fill:#fff}</style><path class="a" d="m5.6 5.6h50v187.7h-50z"/><path class="b" d="m8 8l0.3-0.3 3.1 3.1-0.3 0.3z"/><path class="b" d="m8 10.8l3.1-3.1 0.3 0.3-3.1 3.1z"/><path class="b" d="m49.3 9.4l0.3-0.3 1.8 1.8-0.3 0.3z"/><path class="b" d="m49.3 9.4l1.9-1.8 0.2 0.3-1.8 1.8z"/><path class="b" d="m51.3 9.4l0.3-0.3 1.9 1.8-0.3 0.3z"/><path class="b" d="m51.3 9.4l1.9-1.8 0.3 0.3-1.9 1.8z"/><path fill-rule="evenodd" class="b" d="m19.4 36.8l-2.1-5.1-3.8 3v-16.7l11.6 11.8-4.9 0.7 2.2 5.1zm-1.8-6.4l2.2 5.4 1.4-0.6-2.2-5.4 4.3-0.6-9.1-9.2v13z"/><path class="b" d="m46 30.2l2.2 5.2-2.2 0.9-2.2-5.3-3.6 2.8v-14.8l10.4 10.5-4.6 0.7z"/><path class="b" d="m13.5 63.5l10.1-13 1 0.8-10.1 13z"/><path class="b" d="m18.1 52.2l-2.5 0.4-0.5 2.6-0.6-2.6-2.5-0.4 2.5-0.7 0.6-2.4 0.5 2.4 2.5 0.7z"/><path class="b" d="m23.6 48l-1.5 0.3-0.3 1.5-0.3-1.5-1.5-0.3 1.5-0.3 0.3-1.5 0.3 1.5 1.5 0.3z"/><path class="b" d="m25.3 56.3l-0.8 0.1-0.2 0.9-0.2-0.9-0.8-0.1 0.8-0.3 0.2-0.8 0.2 0.8 0.8 0.3z"/><path class="b" d="m37.6 110.1l10.1-13 1 0.7-10.2 13z"/><path class="b" d="m46 59.7l2.2 5.2-2.2 0.9-2.2-5.3-3.6 2.8v-14.8l10.4 10.5-4.6 0.7z"/><path fill-rule="evenodd" class="b" d="m39.2 57.7c-2.1 0-3.8-0.8-4.4-1.9-0.8-1.7-0.2-5.3 5.1-8.2 4.2-2.3 8.4-1.3 9.5 0.3q0.2 0.4 0.3 0.7 0.1 0.4 0.1 0.7 0 0.4-0.1 0.8 0 0.3-0.2 0.7-0.3 1-0.9 1.9-0.6 0.9-1.3 1.6-0.8 0.8-1.7 1.4-0.9 0.6-1.9 1-0.5 0.2-1.1 0.4-0.5 0.2-1.1 0.3-0.6 0.1-1.1 0.2-0.6 0-1.2 0.1zm5.9-10.6q-0.6 0-1.2 0.1-0.7 0.1-1.3 0.2-0.6 0.2-1.2 0.4-0.5 0.2-1.1 0.5c-4.7 2.6-5.4 5.8-4.7 7.1 0.6 1.4 4 2.2 7.8 0.5q0.9-0.4 1.7-0.9 0.8-0.5 1.5-1.2 0.7-0.7 1.3-1.5 0.5-0.8 0.9-1.8 0.1-0.2 0.1-0.5 0.1-0.3 0.1-0.5 0-0.3-0.1-0.6-0.1-0.3-0.2-0.5c-0.5-0.8-1.8-1.3-3.6-1.3z"/><path fill-rule="evenodd" class="b" d="m36.9 58.7q-0.2 0-0.5 0-0.2-0.1-0.4-0.2-0.2-0.1-0.4-0.2-0.1-0.2-0.3-0.4-0.1-0.2-0.2-0.4-0.1-0.2-0.2-0.5 0-0.2 0-0.5 0.1-0.2 0.2-0.4 0.2-0.3 0.4-0.6 0.2-0.2 0.5-0.4 0.3-0.1 0.6-0.2 0.3-0.1 0.6-0.1 0.3 0 0.5 0 0.3 0.1 0.5 0.2 0.2 0.2 0.4 0.4 0.2 0.2 0.3 0.4 0.2 0.3 0.2 0.7 0.1 0.4 0 0.7-0.1 0.4-0.4 0.7-0.2 0.3-0.5 0.5-0.2 0.1-0.3 0.1-0.2 0.1-0.4 0.1-0.1 0.1-0.3 0.1-0.1 0-0.3 0zm-0.9-1.3q0.1 0.2 0.4 0.3 0.2 0.2 0.4 0.2 0.3 0 0.5 0 0.2-0.1 0.4-0.2 0.2-0.2 0.4-0.3 0.1-0.2 0.2-0.4 0-0.2 0-0.5 0-0.2-0.1-0.4-0.1-0.1-0.2-0.2-0.1-0.1-0.2-0.2-0.2-0.1-0.3-0.1-0.2 0-0.3 0-0.2 0-0.4 0.1-0.2 0-0.4 0.1-0.2 0.1-0.4 0.3-0.1 0.1-0.2 0.3-0.1 0.1-0.1 0.3 0 0.1 0 0.2 0 0.2 0.1 0.3 0.1 0.1 0.1 0.2z"/><path class="b" d="m39.2 60.9l-0.5-0.7c0.3-0.1 0.5-0.4 0.5-0.7-0.1-0.5-1-1-1.4-1.1l0.3-0.8c0.2 0.1 1.8 0.7 1.9 1.8q0 0.2 0 0.4-0.1 0.3-0.2 0.5-0.1 0.2-0.3 0.3-0.1 0.2-0.3 0.3z"/><path class="b" d="m13.8 79q0.9-0.8 1.8-1.4 1-0.6 2-1.2 1-0.5 2.1-0.9 1-0.5 2.1-0.8l2.6 2.6q-0.3 1.2-0.7 2.2-0.4 1.1-0.9 2.1-0.6 1-1.2 1.9-0.7 1-1.4 1.8c-4.2-1.1-7.6 2.1-7.6 2.1l-0.2-0.2 5.3-5.3q0.3 0.2 0.8 0.2 0.4-0.1 0.7-0.4 0.3-0.4 0.2-0.8 0-0.5-0.3-0.8-0.2-0.2-0.4-0.2-0.2-0.1-0.4-0.1-0.3 0-0.5 0.1-0.2 0-0.4 0.2-0.1 0.1-0.2 0.3-0.1 0.2-0.1 0.4 0 0.2 0 0.4 0.1 0.2 0.2 0.3l-5.3 5.3-0.3-0.3c0 0 3.3-3.4 2.1-7.5z"/><path class="b" d="m24.8 78.2l-3.9-3.8 1.6-1.6 3.9 3.8z"/><path class="c" d="m32.6 69.7h19.9v19.9h-19.9z"/><path class="b" d="m39.5 79q0.8-0.7 1.8-1.4 0.9-0.6 1.9-1.2 1-0.5 2.1-0.9 1.1-0.5 2.2-0.7l2.6 2.5q-0.3 1.2-0.8 2.2-0.4 1.1-0.9 2.1-0.5 1-1.2 1.9-0.6 1-1.4 1.8c-4.1-1.1-7.5 2.1-7.5 2.1l-0.3-0.2 5.3-5.3q0.3 0.2 0.8 0.2 0.4-0.1 0.7-0.4 0.3-0.4 0.3-0.8-0.1-0.5-0.4-0.8-0.2-0.2-0.4-0.2-0.2-0.1-0.4-0.1-0.3 0-0.5 0.1-0.2 0-0.3 0.2-0.2 0.1-0.3 0.3 0 0.2-0.1 0.4 0 0.2 0.1 0.4 0 0.2 0.1 0.3l-5.3 5.3-0.2-0.3c0 0 3.2-3.4 2.1-7.5z"/><path class="b" d="m50.4 78.2l-3.8-3.8 1.6-1.6 3.8 3.8z"/><path class="b" d="m37.7 87.2q-0.5 0-0.9-0.1-0.4-0.1-0.7-0.2-0.4-0.2-0.7-0.5-0.3-0.3-0.5-0.6c-0.6-0.9-1-2.7 0.6-5.9q0.2-0.3 0.3-0.6 0.1-0.4 0.1-0.7 0.1-0.4 0-0.8 0-0.3-0.2-0.6-0.2-0.3-0.5-0.6-0.3-0.2-0.6-0.4-0.3-0.2-0.7-0.3-0.3-0.1-0.7-0.2l0.1-0.8q0.4 0.1 0.9 0.2 0.4 0.2 0.8 0.4 0.5 0.2 0.8 0.5 0.3 0.4 0.6 0.7 0.2 0.5 0.3 0.9 0.1 0.5 0.1 0.9-0.1 0.5-0.2 1-0.2 0.4-0.4 0.8c-1.4 2.9-1.1 4.3-0.6 5.1q0.1 0.2 0.4 0.4 0.2 0.2 0.5 0.4 0.2 0.1 0.5 0.1 0.3 0.1 0.7 0.1z"/><path class="b" d="m23.9 96.3v3.4h-1.1q-0.1 0-0.1 0-0.1-0.1-0.2-0.1 0-0.1-0.1-0.1 0-0.1 0-0.2c0-0.1 0-0.4-0.1-0.8h-2.9v10l0.6 0.1c0.1 0 0.2 0.1 0.3 0.1h0.1q0.1 0 0.2 0 0.1 0.1 0.1 0.2 0.1 0 0.2 0.1 0 0.2 0 0.3v1.1h-5.6v-1.1q0-0.1 0-0.3 0.1-0.1 0.1-0.1 0.1-0.1 0.2-0.2 0.1 0 0.2 0h0.1c0.1 0 0.2 0 0.3-0.1l0.6-0.1v-10h-2.9c0 0.4-0.1 0.7-0.1 0.8q0 0.1 0 0.2-0.1 0-0.1 0.1-0.1 0-0.2 0.1 0 0-0.1 0h-1.2v-3.3h11.7z"/><path fill-rule="evenodd" class="b" d="m25.9 137.5h-14.3v-14.2h14.3zm-13.1-1.3h11.9v-11.8h-11.8z"/><path fill-rule="evenodd" class="b" d="m48.4 180.1h-12.3v-11h12.3zm-11.1-1.2h9.9v-8.6h-9.9z"/><path fill-rule="evenodd" class="b" d="m41.7 183.4h-8.6v-7.8h8.6zm-7.4-1.2h6.1v-5.3h-6.1z"/><path class="b" d="m42.6 174.5l3.1-3.1 0.6 0.5-3.1 3.2z"/><path class="b" d="m46.6 173.5h-0.8v-1.6h-1.6v-0.8h2.4v2.4z"/><path fill-rule="evenodd" class="b" d="m49.1 137.6h-14.3v-14.3h6.7c0.2-1.4 0.9-2.7 1.9-3.5 1.1-0.9 2.5-1.3 3.8-1.2 1.4 0.1 2.7 0.7 3.6 1.7 1 1 1.5 2.3 1.5 3.7q0 0.8-0.2 1.5-0.3 0.8-0.7 1.4-0.4 0.7-1 1.2-0.6 0.5-1.3 0.8zm-13.1-1.2h11.9v-8.3l0.4-0.1c0.9-0.3 1.7-1 2.2-1.8 0.5-0.9 0.7-1.9 0.5-2.9-0.2-0.9-0.7-1.8-1.4-2.5-0.8-0.6-1.8-1-2.7-1q-0.9 0-1.6 0.4-0.8 0.3-1.4 0.8-0.6 0.6-0.9 1.4-0.3 0.7-0.3 1.5v0.6h-6.7z"/><path class="b" d="m43.8 127.3c-2.1-0.4-2.4 1.8-2.4 2.7q-0.1 0.4-0.2 0.7-0.2 0.3-0.4 0.5-0.2 0.3-0.5 0.4-0.3 0.2-0.6 0.3c-0.2 0.1 3.3 0.9 5-0.8 1.7-1.7 0.6-3.6-0.9-3.8z"/><path class="b" d="m51.2 120.4l-5.4 7.6q-0.1-0.2-0.3-0.5-0.2-0.2-0.4-0.3-0.2-0.2-0.4-0.3-0.3-0.1-0.6-0.2h-0.3l4.4-6.2z"/><path class="b" d="m19.9 149.3l3.7 3.8-7.6 7.6-3.8-3.8z"/><path class="b" d="m22.1 147l3.8 3.8-1.7 1.6-3.7-3.7z"/><path class="b" d="m11.9 161l0.3-4 0.8 0.1-0.2 3 3-0.2 0.1 0.8-4 0.3z"/><path fill-rule="evenodd" class="b" d="m46.4 154.7c-1.1 0-2.2-0.7-2.6-1.8-0.5-1.1-0.2-2.3 0.6-3.1 0.8-0.9 2.1-1.1 3.1-0.7 1.1 0.5 1.8 1.5 1.8 2.7q0 0.6-0.2 1.1-0.2 0.5-0.6 0.9-0.4 0.4-1 0.7-0.5 0.2-1.1 0.2zm0-4.6c-0.6 0-1.3 0.4-1.5 1.1-0.3 0.6-0.1 1.3 0.3 1.8 0.5 0.4 1.2 0.6 1.9 0.3 0.6-0.2 1-0.8 1-1.5q0-0.3-0.1-0.6-0.2-0.3-0.4-0.6-0.2-0.2-0.5-0.3-0.3-0.2-0.7-0.2z"/><path class="b" d="m33.2 159.2l11.3-6.2 1.9 1.1c0 0-8.2 5-9.7 5.6-1.4 0.5-3.5-0.5-3.5-0.5z"/><path fill-rule="evenodd" class="b" d="m46.4 161.1c-1.2 0-2.2-0.7-2.7-1.8-0.4-1.1-0.2-2.3 0.6-3.1 0.9-0.9 2.1-1.1 3.2-0.7 1.1 0.5 1.8 1.5 1.8 2.7q0 0.6-0.3 1.1-0.2 0.5-0.6 0.9-0.4 0.4-0.9 0.7-0.5 0.2-1.1 0.2zm0-4.6c-0.7 0-1.3 0.4-1.6 1-0.3 0.7-0.1 1.4 0.4 1.9 0.4 0.5 1.1 0.6 1.8 0.3 0.6-0.2 1-0.8 1-1.5q0-0.3-0.1-0.6-0.1-0.3-0.4-0.6-0.2-0.2-0.5-0.3-0.3-0.1-0.6-0.2z"/><path class="b" d="m33.1 150.8l11.4 6.2 1.9-1.1c0 0-8.2-5-9.7-5.6-1.5-0.5-3.6 0.5-3.6 0.5z"/><path fill-rule="evenodd" class="b" d="m11.7 181.5v-10.5l6.8 5.3zm1.2-8.1v5.5l3.5-2.7z"/><path class="b" d="m25.8 171.1v10.3l-6.5-5.2 6.5-5.1z"/><path class="b" d="m19.1 181.9h-0.4v-1.7h0.4zm0-3.2h-0.4v-1.6h0.4zm0-3.3h-0.4v-1.6h0.4zm0-3.3h-0.4v-1.6h0.4z"/><path class="a" d="m335.2 242.1h102.8v61h-102.8z"/><path class="b" d="m340.6 247.6l-3.1-3.1 0.3-0.3 3.1 3.1-0.3 0.3z"/><path class="b" d="m337.8 247.6l-0.3-0.3 3.1-3.1 0.3 0.3-3.1 3.1z"/><path class="b" d="m431.5 245.9l0.3-0.3 1.8 1.9-0.3 0.3z"/><path class="b" d="m431.5 245.9l1.8-1.8 0.3 0.3-1.8 1.8z"/><path class="b" d="m433.5 245.9l0.3-0.2 1.8 1.8-0.2 0.3z"/><path class="b" d="m433.5 245.9l1.8-1.8 0.3 0.3-1.8 1.8z"/><path class="b" d="m353.4 251.9h0.4v40h-0.4z"/><path class="b" d="m368.1 251.9h0.4v40h-0.4z"/><path fill-rule="evenodd" class="b" d="m347.3 255.7q0.6 0.2 1.2 0.5 0.6 0.3 1 0.8 0.5 0.4 0.9 1-0.4 0.5-0.9 1-0.5 0.4-1 0.7-0.6 0.3-1.2 0.5-0.7 0.2-1.3 0.2-0.6 0-1.3-0.2-0.6-0.2-1.1-0.5-0.6-0.3-1.1-0.7-0.4-0.5-0.8-1 0.4-0.6 0.8-1 0.5-0.5 1-0.8 0.6-0.3 1.2-0.5 0.7-0.2 1.3-0.2 0.7 0 1.3 0.2zm-1.3 4.3q0.4 0 0.8-0.2 0.3-0.1 0.6-0.4 0.3-0.3 0.5-0.7 0.1-0.3 0.1-0.7c0-0.8-0.5-1.6-1.2-1.9-0.8-0.3-1.6-0.1-2.2 0.4-0.6 0.6-0.8 1.5-0.4 2.2 0.3 0.8 1 1.3 1.8 1.3z"/><path class="b" d="m347.6 258c0 0.6-0.4 1.2-1 1.4-0.6 0.3-1.2 0.1-1.7-0.3-0.4-0.5-0.5-1.1-0.3-1.7 0.2-0.6 0.8-0.9 1.4-0.9q0.3 0 0.6 0.1 0.3 0.1 0.5 0.3 0.2 0.2 0.3 0.5 0.2 0.3 0.2 0.6z"/><path fill-rule="evenodd" class="b" d="m347.3 269.7q0.6 0.1 1.2 0.4 0.6 0.4 1 0.8 0.5 0.5 0.9 1-0.4 0.6-0.9 1-0.5 0.4-1 0.8-0.6 0.3-1.2 0.4-0.7 0.2-1.3 0.2-0.6 0-1.3-0.1-0.6-0.2-1.1-0.5-0.6-0.4-1.1-0.8-0.4-0.4-0.8-1 0.4-0.5 0.8-1 0.5-0.4 1-0.8 0.6-0.3 1.2-0.5 0.7-0.1 1.3-0.1 0.7 0 1.3 0.2zm-0.5 4q0.3-0.1 0.6-0.4 0.3-0.3 0.4-0.6 0.2-0.4 0.2-0.8c0-0.8-0.5-1.5-1.2-1.8-0.8-0.4-1.6-0.2-2.2 0.4-0.6 0.6-0.8 1.4-0.4 2.2 0.3 0.7 1 1.2 1.8 1.2q0.4 0 0.8-0.2z"/><path class="b" d="m347.6 271.9c0 0.6-0.4 1.2-1 1.4-0.6 0.3-1.2 0.1-1.7-0.3-0.4-0.4-0.5-1.1-0.3-1.7 0.2-0.6 0.8-0.9 1.4-0.9q0.3 0 0.6 0.1 0.3 0.1 0.5 0.3 0.2 0.3 0.3 0.5 0.2 0.3 0.2 0.6z"/><path fill-rule="evenodd" class="b" d="m347.3 283q0.6 0.1 1.2 0.5 0.6 0.3 1 0.7 0.5 0.5 0.9 1-0.4 0.6-0.9 1-0.5 0.5-1 0.8-0.6 0.3-1.2 0.5-0.7 0.1-1.3 0.2-0.6-0.1-1.3-0.2-0.6-0.2-1.1-0.5-0.6-0.3-1.1-0.8-0.4-0.4-0.8-1 0.4-0.5 0.8-1 0.5-0.4 1-0.7 0.6-0.4 1.2-0.5 0.7-0.2 1.3-0.2 0.7 0 1.3 0.2zm-0.5 4.1q0.3-0.2 0.6-0.5 0.3-0.2 0.4-0.6 0.2-0.4 0.2-0.8c0-0.8-0.5-1.5-1.2-1.8-0.8-0.3-1.6-0.2-2.2 0.4-0.6 0.6-0.8 1.4-0.4 2.2 0.3 0.7 1 1.2 1.8 1.2q0.4 0 0.8-0.1z"/><path class="b" d="m347.6 285.2c0 0.7-0.4 1.2-1 1.5-0.6 0.2-1.2 0.1-1.7-0.4-0.4-0.4-0.5-1.1-0.3-1.6 0.2-0.6 0.8-1 1.4-1q0.3 0 0.6 0.1 0.3 0.1 0.5 0.3 0.2 0.3 0.3 0.5 0.2 0.3 0.2 0.6z"/><path class="b" d="m339.4 265h94.3v0.4h-94.3z"/><path class="b" d="m339.4 278.4h94.3v0.4h-94.3z"/><path class="b" d="m379.5 260.9q-0.1 0-0.1 0-0.1-0.1-0.1-0.1 0 0 0-0.1-0.1 0 0-0.1v-6.3q-0.1-0.1 0-0.2 0.1-0.1 0.2-0.1 0.1 0 0.2 0.1 0 0.1 0 0.2v6.1h3.3q0.1 0 0.2 0.1 0 0 0 0.1 0 0.1 0 0.2-0.1 0.1-0.2 0.1z"/><path fill-rule="evenodd" class="b" d="m388.6 256.3v4.3q0 0.2 0 0.2-0.1 0.1-0.2 0.1-0.1 0-0.2-0.1-0.1 0-0.1-0.2v-0.7q-0.1 0.2-0.3 0.4-0.2 0.2-0.5 0.3-0.2 0.1-0.4 0.2-0.3 0.1-0.6 0.1c-0.6-0.1-1.1-0.3-1.5-0.8-0.5-0.4-0.7-1-0.7-1.6 0-0.6 0.2-1.2 0.7-1.6 0.4-0.5 0.9-0.8 1.5-0.8q0.3 0 0.6 0.1 0.2 0 0.4 0.2 0.3 0.1 0.5 0.3 0.2 0.1 0.3 0.3v-0.7q0 0 0-0.1 0.1 0 0.1 0 0-0.1 0.1-0.1 0 0 0.1 0 0 0 0.1 0 0 0 0 0.1 0.1 0 0.1 0.1 0 0 0 0zm-0.5 2.2c0-0.7-0.5-1.3-1.2-1.6-0.6-0.2-1.4 0-1.9 0.5-0.4 0.5-0.6 1.3-0.3 1.9 0.3 0.7 0.9 1.1 1.6 1.1q0.4 0 0.7-0.2 0.4-0.1 0.6-0.4 0.3-0.3 0.4-0.6 0.1-0.3 0.1-0.7z"/><path class="b" d="m390.5 256.3q0 0 0-0.1 0.1 0 0.1 0 0-0.1 0.1-0.1 0 0 0.1 0 0 0 0 0 0.1 0 0.1 0.1 0.1 0 0.1 0 0 0.1 0 0.1v2.6c0 0.4 0.1 0.8 0.4 1.1 0.3 0.2 0.7 0.4 1.1 0.4 0.3 0 0.7-0.2 1-0.4 0.3-0.3 0.4-0.7 0.4-1.1v-2.6q0 0 0 0 0 0 0 0 0 0 0-0.1 0 0 0 0h0.1 0.1 0.1q0 0 0.1 0 0 0 0 0 0 0 0 0 0 0 0 0 0 0.1 0 0.1 0 0 0 0 0 0 0 0 0 0 0 0v4.2q0 0.5-0.2 0.9-0.2 0.4-0.5 0.7-0.3 0.3-0.7 0.5-0.4 0.1-0.9 0.1-0.1 0-0.2 0-0.2 0-0.3 0-0.1 0-0.2-0.1-0.2 0-0.3-0.1 0 0 0 0-0.1-0.1-0.1-0.1 0-0.1 0-0.1 0 0 0-0.1 0.1 0 0.1-0.1 0 0 0.1 0 0 0 0 0 0.1 0 0.1 0 0.1 0 0.2 0.1 0.1 0 0.2 0 0.1 0.1 0.2 0.1 0.1 0 0.2 0 0.4 0 0.7-0.2 0.3-0.1 0.6-0.3 0.2-0.3 0.4-0.6 0.1-0.3 0.1-0.7v-0.3q-0.1 0.1-0.3 0.3-0.2 0.1-0.4 0.2-0.1 0.1-0.4 0.1-0.2 0.1-0.4 0.1-0.4 0-0.7-0.2-0.3-0.1-0.6-0.4-0.3-0.3-0.4-0.6-0.2-0.4-0.2-0.8z"/><path fill-rule="evenodd" class="b" d="m396 258.5c0-0.6 0.2-1.2 0.7-1.6 0.4-0.4 0.9-0.6 1.5-0.7 0.6 0 1.2 0.2 1.6 0.6 0.5 0.4 0.8 0.9 0.8 1.5q0 0.1 0 0.1 0 0.1-0.1 0.1 0 0 0 0-0.1 0.1-0.1 0.1h-3.9q0 0.3 0.1 0.6 0.2 0.4 0.4 0.6 0.3 0.3 0.6 0.4 0.3 0.2 0.7 0.2 0.2 0 0.5-0.1 0.2 0 0.4-0.2 0.2-0.1 0.4-0.2 0.1-0.2 0.3-0.4 0 0 0-0.1 0 0 0.1 0 0 0 0.1 0 0 0 0.1 0 0 0.1 0 0.1 0.1 0 0.1 0.1 0 0 0 0.1 0 0-0.1 0.1-0.1 0.2-0.3 0.4-0.2 0.2-0.5 0.4-0.2 0.1-0.5 0.2-0.3 0-0.6 0-0.5 0-0.9-0.1-0.4-0.2-0.7-0.6-0.3-0.3-0.5-0.7-0.2-0.4-0.2-0.9zm4.1-0.4q-0.1-0.3-0.2-0.6-0.2-0.3-0.4-0.5-0.3-0.2-0.6-0.3-0.3-0.1-0.6-0.1-0.3 0-0.6 0.1-0.3 0.1-0.6 0.3-0.2 0.2-0.4 0.5-0.1 0.3-0.2 0.6z"/><path class="b" d="m402.1 256.4q0-0.1 0-0.1 0-0.1 0.1-0.1 0 0 0-0.1 0.1 0 0.1 0 0.1 0 0.1 0 0.1 0.1 0.1 0.1 0 0 0 0.1 0 0 0 0.1v1l0.1-0.2q0.2-0.2 0.4-0.4 0.2-0.2 0.4-0.4 0.3-0.1 0.5-0.2 0.3-0.1 0.6-0.1 0.1 0 0.1 0 0.1 0 0.1 0 0 0.1 0 0.1 0.1 0.1 0.1 0.1 0 0-0.1 0.1 0 0 0 0.1 0 0-0.1 0 0 0-0.1 0-0.2 0-0.4 0.1-0.2 0-0.4 0.2-0.1 0.1-0.3 0.2-0.1 0.1-0.3 0.3-0.1 0.1-0.1 0.3-0.1 0.1-0.2 0.2-0.1 0.2-0.1 0.3-0.1 0.2-0.1 0.3 0 0 0 0 0 0 0 0.1 0 0 0 0 0 0 0 0v2.1q0 0.1-0.1 0.2-0.1 0.1-0.2 0.1-0.1 0-0.2-0.1 0-0.1 0-0.2z"/><path class="b" d="m410 254.8l-1 0.5q0 0 0 0 0 0-0.1 0 0 0 0 0 0 0 0 0-0.1 0-0.1 0 0 0 0 0-0.1 0-0.1 0 0-0.1 0-0.1 0 0-0.1-0.1 0 0 0-0.1 0.1 0 0.1-0.1 0 0 0.1 0l1.3-0.8q0 0 0.1 0 0-0.1 0.1 0 0 0 0 0 0.1 0 0.1 0.1 0 0 0 0 0 0 0 0.1 0 0 0 0 0 0 0 0v6.3q0 0 0 0.1 0 0-0.1 0.1 0 0 0 0-0.1 0-0.1 0-0.1 0-0.1 0-0.1 0-0.1 0 0-0.1-0.1-0.1 0-0.1 0-0.1z"/><path class="b" d="m379.5 274.9q-0.1 0-0.1 0-0.1 0-0.1-0.1 0 0 0 0 0-0.1 0-0.1v-6.4q0-0.1 0-0.1 0.1-0.1 0.2-0.1 0.1 0 0.1 0.1 0.1 0 0.1 0.1v6.1h3.3q0 0 0.1 0 0 0.1 0.1 0.1 0 0 0 0.1 0 0 0.1 0.1-0.1 0-0.1 0.1 0 0 0 0-0.1 0.1-0.1 0.1-0.1 0-0.1 0z"/><path fill-rule="evenodd" class="b" d="m388.6 274.7q0 0.1-0.1 0.1 0 0.1-0.1 0.1-0.1 0-0.2-0.1-0.1 0-0.1-0.1v-0.7q-0.1 0.2-0.3 0.4-0.2 0.2-0.5 0.3-0.2 0.1-0.4 0.2-0.3 0-0.6 0c-0.6 0-1.1-0.3-1.5-0.7-0.5-0.5-0.7-1-0.7-1.6 0-0.7 0.2-1.2 0.7-1.7 0.4-0.4 0.9-0.7 1.5-0.7q0.3 0 0.6 0 0.2 0.1 0.4 0.2 0.3 0.1 0.5 0.3 0.2 0.2 0.3 0.4v-0.7q0-0.1 0.1-0.2 0.1-0.1 0.2-0.1 0.1 0 0.2 0.1 0 0.1 0 0.2zm-0.5-2.1c0-0.8-0.5-1.4-1.2-1.6-0.6-0.2-1.4-0.1-1.9 0.5-0.4 0.5-0.6 1.2-0.3 1.9 0.3 0.6 0.9 1.1 1.6 1.1q0.4 0 0.7-0.2 0.4-0.1 0.6-0.4 0.3-0.3 0.4-0.6 0.1-0.4 0.1-0.7z"/><path class="b" d="m390.5 270.4q0-0.1 0-0.1 0.1-0.1 0.1-0.1 0 0 0.1 0 0-0.1 0-0.1 0.1 0 0.1 0.1 0.1 0 0.1 0 0.1 0 0.1 0.1 0 0 0 0.1v2.6c0 0.4 0.1 0.8 0.4 1 0.3 0.3 0.7 0.5 1.1 0.5 0.3 0 0.7-0.2 1-0.5 0.3-0.2 0.4-0.6 0.4-1v-2.6q0 0 0 0 0 0 0 0 0-0.1 0-0.1 0 0 0 0 0 0 0 0 0.1 0 0.1 0 0-0.1 0-0.1 0 0 0 0h0.1l0.1 0.1q0 0 0.1 0 0 0 0 0 0 0 0 0 0 0 0 0.1 0 0 0 0 0 0 0 0 0 0 0 0 0 0 0 0.1v4.1q0 0.5-0.2 0.9-0.1 0.4-0.5 0.7-0.3 0.3-0.7 0.5-0.4 0.2-0.9 0.2-0.1 0-0.2-0.1-0.2 0-0.3 0-0.1 0-0.2-0.1-0.2 0-0.3-0.1 0 0 0 0-0.1-0.1-0.1-0.1 0 0 0-0.1 0 0 0-0.1 0.1 0 0.1 0 0-0.1 0.1-0.1 0 0 0 0 0.1 0 0.1 0 0.1 0.1 0.2 0.1 0.1 0 0.2 0 0.1 0.1 0.2 0.1 0.1 0 0.2 0 0.4 0 0.7-0.1 0.3-0.2 0.6-0.4 0.2-0.3 0.4-0.6 0.1-0.3 0.1-0.7v-0.3q-0.1 0.2-0.3 0.3-0.2 0.1-0.4 0.2-0.1 0.1-0.4 0.1-0.2 0.1-0.4 0.1-0.4 0-0.7-0.2-0.4-0.1-0.6-0.4-0.3-0.3-0.4-0.6-0.2-0.4-0.2-0.7z"/><path fill-rule="evenodd" class="b" d="m396 272.5c-0.1-0.6 0.1-1.2 0.6-1.7 0.4-0.5 1-0.8 1.6-0.8 0.6 0 1.3 0.2 1.7 0.7 0.5 0.4 0.7 1 0.7 1.7q0 0 0 0 0 0.1-0.1 0.1 0 0 0 0.1-0.1 0-0.1 0h-3.9q0 0.3 0.1 0.7 0.2 0.3 0.4 0.6 0.3 0.2 0.6 0.4 0.3 0.1 0.7 0.1 0.2 0 0.5-0.1 0.2 0 0.4-0.1 0.2-0.1 0.4-0.3 0.1-0.2 0.3-0.4 0 0 0 0 0-0.1 0.1-0.1 0 0 0.1 0 0 0 0.1 0.1 0 0 0 0 0.1 0.1 0.1 0.1 0 0.1 0 0.1 0 0-0.1 0.1-0.1 0.2-0.3 0.4-0.2 0.2-0.5 0.4-0.2 0.1-0.5 0.2-0.3 0.1-0.6 0.1-0.5 0-0.9-0.2-0.4-0.2-0.7-0.5-0.3-0.3-0.5-0.8-0.2-0.4-0.2-0.9zm4.1-0.3q-0.1-0.4-0.2-0.6-0.2-0.3-0.4-0.5-0.3-0.3-0.6-0.4-0.3-0.1-0.6-0.1-0.3 0-0.6 0.1-0.3 0.2-0.6 0.4-0.2 0.2-0.4 0.5-0.1 0.2-0.2 0.6z"/><path class="b" d="m402.1 270.4q0-0.1 0-0.2 0.1-0.1 0.2-0.1 0.1 0 0.2 0.1 0.1 0.1 0 0.2v1l0.1-0.1q0.2-0.2 0.4-0.4 0.2-0.3 0.4-0.4 0.3-0.2 0.5-0.3 0.3 0 0.6 0 0.1 0 0.1 0 0.1 0 0.1 0 0 0.1 0 0.1 0.1 0 0.1 0.1 0 0-0.1 0.1 0 0 0 0.1 0 0-0.1 0 0 0-0.1 0-0.2 0-0.4 0.1-0.2 0-0.4 0.1-0.1 0.1-0.3 0.3-0.1 0.1-0.3 0.3-0.1 0.1-0.1 0.3-0.1 0.1-0.2 0.2-0.1 0.2-0.1 0.3-0.1 0.2-0.1 0.3 0 0 0 0 0 0 0 0 0 0.1 0 0.1 0 0 0 0v2.1q0 0.1-0.1 0.1-0.1 0.1-0.2 0.1-0.1 0-0.1-0.1-0.1 0-0.1-0.1z"/><path class="b" d="m408.9 274.5l3.2-2.9q0.1-0.1 0.2-0.3 0.1-0.1 0.2-0.3 0.1-0.1 0.1-0.3 0.1-0.2 0.1-0.4 0-0.3-0.2-0.6-0.1-0.4-0.4-0.6-0.2-0.3-0.5-0.4-0.3-0.1-0.7-0.1-0.2 0-0.3 0-0.2 0-0.3 0.1-0.2 0-0.3 0.1-0.2 0.1-0.3 0.2l-0.3 0.3q-0.1 0.1-0.2 0.1-0.1 0-0.1-0.1-0.1-0.1-0.1-0.2 0-0.1 0.1-0.1l0.3-0.3q0.2-0.2 0.3-0.3 0.2-0.1 0.4-0.2 0.2 0 0.4-0.1 0.2 0 0.4 0 0.4 0 0.9 0.2 0.4 0.1 0.7 0.5 0.3 0.3 0.4 0.7 0.2 0.4 0.2 0.8 0 0.3 0 0.5-0.1 0.2-0.2 0.4-0.1 0.2-0.2 0.4-0.1 0.2-0.3 0.4l-2.7 2.4h3.2q0 0 0.1 0.1 0 0 0.1 0 0 0 0 0.1 0 0 0 0.1 0 0 0 0.1 0 0 0 0-0.1 0.1-0.1 0.1-0.1 0-0.1 0h-3.8q-0.1 0-0.1 0 0 0 0 0-0.1 0-0.1 0 0 0 0-0.1-0.1 0-0.1 0 0-0.1 0-0.1 0-0.1 0-0.1 0.1-0.1 0.1-0.1z"/><path class="b" d="m379.5 289q-0.1 0-0.1 0-0.1 0-0.1-0.1 0 0 0 0-0.1-0.1 0-0.1v-6.4q0 0 0-0.1 0 0 0 0 0-0.1 0.1-0.1 0 0 0.1 0 0 0 0.1 0 0 0 0 0.1 0.1 0 0.1 0 0 0.1 0 0.1v6.1h3.3q0.1 0 0.2 0.1 0 0.1 0 0.2 0 0.1 0 0.1-0.1 0.1-0.2 0.1z"/><path fill-rule="evenodd" class="b" d="m388.6 284.4v4.3q0 0.1 0 0.2-0.1 0.1-0.2 0.1-0.1 0-0.2-0.1-0.1-0.1-0.1-0.2v-0.7q-0.1 0.2-0.3 0.4-0.2 0.2-0.5 0.3-0.2 0.1-0.4 0.2-0.3 0-0.6 0.1c-0.6-0.1-1.1-0.4-1.5-0.8-0.5-0.4-0.7-1-0.7-1.6 0-0.6 0.2-1.2 0.7-1.7 0.4-0.4 0.9-0.7 1.5-0.7q0.3 0 0.6 0 0.2 0.1 0.4 0.2 0.3 0.2 0.5 0.3 0.2 0.2 0.3 0.4v-0.7q0-0.1 0.1-0.1 0.1-0.1 0.2-0.1 0.1 0 0.1 0.1 0.1 0 0.1 0.1zm-0.5 2.2c0-0.7-0.5-1.4-1.2-1.6-0.6-0.2-1.4-0.1-1.9 0.5-0.4 0.5-0.6 1.2-0.3 1.9 0.3 0.7 0.9 1.1 1.6 1.1q0.4 0 0.7-0.2 0.4-0.1 0.6-0.4 0.3-0.3 0.4-0.6 0.1-0.4 0.1-0.7z"/><path class="b" d="m390.5 284.4q0 0 0-0.1 0.1 0 0.1-0.1 0 0 0.1 0 0 0 0.1 0 0 0 0 0 0.1 0 0.1 0 0 0.1 0.1 0.1 0 0.1 0 0.1v2.6c0 0.4 0.1 0.8 0.4 1 0.3 0.3 0.7 0.5 1.1 0.5 0.3 0 0.7-0.2 1-0.5 0.3-0.2 0.4-0.6 0.4-1v-2.6q0 0 0 0 0 0 0-0.1 0 0 0 0 0 0 0 0 0 0 0 0 0 0 0 0 0.1 0 0.1 0 0-0.1 0-0.1 0 0 0 0h0.1l0.1 0.1q0 0 0.1 0 0 0 0 0 0 0 0 0 0 0 0 0.1 0 0 0 0 0 0 0 0 0 0 0 0 0 0 0 0v4.2q0 0.5-0.2 0.9-0.2 0.4-0.5 0.7-0.3 0.3-0.7 0.5-0.4 0.2-0.9 0.2-0.1 0-0.2-0.1-0.2 0-0.3 0-0.1 0-0.2-0.1-0.2 0-0.3-0.1 0 0 0 0-0.1-0.1-0.1-0.1 0 0 0-0.1 0 0 0-0.1 0.1 0 0.1 0 0-0.1 0.1-0.1 0 0 0 0 0.1 0 0.1 0 0.1 0 0.2 0.1 0.1 0 0.2 0 0.1 0.1 0.2 0.1 0.1 0 0.2 0 0.4 0 0.7-0.1 0.3-0.2 0.6-0.4 0.2-0.3 0.4-0.6 0.1-0.3 0.1-0.7v-0.3q-0.4 0.5-1 0.6-0.6 0.2-1.1 0-0.6-0.2-1-0.7-0.3-0.6-0.3-1.2z"/><path fill-rule="evenodd" class="b" d="m396 286.6c0-0.6 0.2-1.2 0.7-1.6 0.4-0.4 0.9-0.7 1.5-0.7 0.6 0 1.2 0.2 1.6 0.6 0.5 0.4 0.8 0.9 0.8 1.5q0 0 0 0.1 0 0-0.1 0.1 0 0 0 0-0.1 0-0.1 0h-3.9q0 0.4 0.1 0.7 0.2 0.3 0.4 0.6 0.3 0.3 0.6 0.4 0.3 0.1 0.7 0.1 0.2 0 0.5 0 0.2-0.1 0.4-0.2 0.2-0.1 0.4-0.3 0.1-0.1 0.3-0.3 0-0.1 0-0.1 0 0 0.1 0 0 0 0.1 0 0 0 0.1 0 0 0 0 0.1 0.1 0 0.1 0 0 0.1 0 0.1 0 0.1-0.1 0.1-0.1 0.3-0.3 0.5-0.2 0.2-0.5 0.3-0.2 0.2-0.5 0.2-0.3 0.1-0.6 0.1-0.5 0-0.9-0.2-0.4-0.2-0.7-0.5-0.3-0.3-0.5-0.7-0.2-0.5-0.2-0.9zm4.1-0.4q-0.1-0.3-0.2-0.6-0.2-0.3-0.4-0.5-0.3-0.2-0.6-0.3-0.3-0.1-0.6-0.2-0.3 0.1-0.6 0.2-0.3 0.1-0.6 0.3-0.2 0.2-0.4 0.5-0.1 0.3-0.2 0.6z"/><path class="b" d="m402.1 284.4q0-0.1 0.1-0.1 0-0.1 0.1-0.1 0.1 0 0.2 0.1 0 0 0 0.1v1.1l0.1-0.1q0.2-0.3 0.4-0.5 0.2-0.2 0.4-0.4 0.3-0.1 0.5-0.2 0.3-0.1 0.6-0.1 0.1 0 0.1 0 0.1 0 0.1 0.1 0 0 0 0 0.1 0.1 0.1 0.1 0 0.1-0.1 0.1 0 0.1 0 0.1 0 0-0.1 0 0 0.1-0.1 0.1-0.2 0-0.4 0-0.2 0.1-0.4 0.2-0.1 0.1-0.3 0.2-0.1 0.2-0.3 0.3-0.1 0.2-0.1 0.3-0.1 0.1-0.2 0.3-0.1 0.1-0.1 0.2-0.1 0.2-0.1 0.3 0 0 0 0.1 0 0 0 0 0 0 0 0 0 0 0 0v2.1q0 0.1-0.1 0.2-0.1 0.1-0.2 0.1-0.1 0-0.2-0.1 0-0.1 0-0.2z"/><path class="b" d="m413 282.6l-1.8 1.8q0.2 0 0.4 0.1 0.1 0 0.3 0.1 0.1 0.1 0.3 0.2 0.1 0.1 0.2 0.2 0.5 0.5 0.6 1.2 0.2 0.7-0.1 1.3-0.3 0.7-0.9 1.1-0.5 0.3-1.2 0.4-0.3-0.1-0.5-0.1-0.2 0-0.4-0.1-0.2-0.1-0.4-0.2-0.2-0.2-0.4-0.3 0-0.1 0-0.2 0-0.1 0-0.2 0.1 0 0.2 0 0.1 0 0.2 0 0.1 0.2 0.3 0.3 0.1 0 0.3 0.1 0.1 0.1 0.3 0.1 0.2 0.1 0.4 0 0.1 0.1 0.3 0 0.2 0 0.4-0.1 0.1 0 0.3-0.1 0.1-0.1 0.3-0.3 0.1-0.1 0.2-0.2 0.1-0.2 0.2-0.4 0-0.1 0.1-0.3 0-0.2 0-0.4 0-0.1 0-0.3-0.1-0.2-0.1-0.4-0.1-0.1-0.2-0.3-0.1-0.1-0.2-0.3-0.2-0.1-0.3-0.2-0.2-0.1-0.3-0.1-0.2-0.1-0.4-0.2-0.1 0-0.3 0-0.1 0-0.1 0 0 0 0 0-0.1 0-0.1 0 0-0.1 0-0.1-0.1 0-0.1-0.1 0 0 0-0.1 0 0 0-0.1 0 0 0.1 0l1.7-1.8h-2.6q-0.1 0-0.1 0-0.1 0-0.1-0.1 0 0-0.1 0 0-0.1 0-0.1 0-0.1 0-0.1 0.1-0.1 0.1-0.1 0 0 0.1 0 0-0.1 0.1-0.1h3.1q0.1 0 0.1 0.1 0.1 0 0.1 0 0.1 0 0.1 0.1 0 0 0 0.1 0 0 0 0 0 0 0 0 0 0 0 0.1 0 0 0 0z"/><path class="c" d="m369.6 266.1h3v11.6h-3.1z"/><path class="a" d="m369.6 279.4l3 0.1v11.5h-3.1z"/><path class="d" d="m369.6 252.2h3v11.6h-3.1z"/><path class="b" d="m339.4 298.2h18v0.4h-18z"/><path class="b" d="m357.9 257.3h6.2v5.2h-6.2z"/><path class="b" d="m363.3 257.8h-0.7v-1.3q0-2.3-1.6-2.3c-1.7 0-1.7 2-1.7 2.1v1.5h-0.7v-1.5q-0.1-0.5 0.1-1 0.1-0.5 0.5-0.9 0.3-0.4 0.8-0.7 0.5-0.2 1-0.2c1.5 0 2.3 1 2.3 3z"/><path fill-rule="evenodd" class="b" d="m425.5 261.1c-1.3 0-2.5-0.7-3-1.9-0.5-1.2-0.2-2.6 0.7-3.5 0.9-0.9 2.3-1.2 3.5-0.7 1.2 0.5 1.9 1.7 1.9 3q0 0.6-0.2 1.2-0.2 0.6-0.7 1-0.4 0.5-1 0.7-0.6 0.3-1.2 0.2zm0-5.9c-1.2 0-2.2 0.7-2.6 1.7-0.4 1.1-0.2 2.2 0.6 3 0.8 0.8 2 1.1 3 0.6 1.1-0.4 1.7-1.4 1.7-2.5q0-0.6-0.2-1.1-0.2-0.5-0.6-0.9-0.4-0.4-0.9-0.6-0.5-0.2-1-0.2z"/><path fill-rule="evenodd" class="b" d="m425.5 275.1c-1.3 0-2.5-0.8-3-2-0.5-1.2-0.2-2.5 0.7-3.4 0.9-1 2.3-1.2 3.5-0.7 1.2 0.5 1.9 1.6 1.9 2.9q0 0.7-0.2 1.2-0.2 0.6-0.7 1.1-0.4 0.4-1 0.6-0.6 0.3-1.2 0.3zm0-6c-1.2 0-2.2 0.7-2.6 1.8-0.4 1-0.2 2.2 0.6 3 0.8 0.8 2 1 3 0.6 1.1-0.4 1.7-1.5 1.7-2.6q0-0.5-0.2-1-0.2-0.5-0.6-0.9-0.4-0.4-0.9-0.6-0.5-0.2-1-0.3z"/><path fill-rule="evenodd" class="b" d="m425.5 289c-1.3 0-2.5-0.8-3-2-0.5-1.2-0.2-2.5 0.7-3.4 0.9-0.9 2.3-1.2 3.5-0.7 1.2 0.5 1.9 1.6 1.9 2.9q0 0.7-0.2 1.2-0.2 0.6-0.7 1.1-0.4 0.4-1 0.7-0.6 0.2-1.2 0.2zm0-5.9c-1.2 0-2.2 0.6-2.6 1.7-0.4 1-0.2 2.2 0.6 3 0.8 0.8 2 1 3 0.6 1.1-0.4 1.7-1.4 1.7-2.6q0-0.5-0.2-1-0.2-0.5-0.6-0.9-0.4-0.4-0.9-0.6-0.5-0.2-1-0.2z"/><path fill-rule="evenodd" class="d" d="m136.6 150.5l-0.5-0.8q-0.1-0.2-0.2-0.5 0-0.1-0.1-0.2-0.1-0.2-0.1-0.3-0.1-0.1-0.1-0.2-0.1-0.2-0.1-0.3-0.2-0.5-0.4-1.2c0-0.2-0.1-0.3-0.1-0.5l-0.3-1-0.1-0.5-0.3-1.2-0.2-0.6-0.1-0.5c0-0.1 0-0.2 0-0.4l-0.2-0.6q-0.1-0.7-0.3-1.5l-0.2-1.4q-0.1-0.7-0.3-1.5-0.1-0.7-0.2-1.5l-0.1-0.7c0-0.3-0.1-0.6-0.1-0.8q-0.3-2.4-0.6-5l-0.2-1.8c-0.4-4.2-0.7-8.4-0.8-12.6q-0.1-2.3-0.1-4.6 0-2.3 0-4.6 0.1-2.3 0.2-4.6 0.2-2.3 0.4-4.6c1-12 3.6-21 7.7-26.5q0 0 0-0.1 0.1 0 0.1 0 0 0 0-0.1 0.1 0 0.1 0l0.1-0.1q0.1 0 0.1 0 0.1-0.1 0.2-0.1 0 0 0.1 0 0.1-0.1 0.2-0.1c1-0.1 2.9 0.3 5.8 1.3q1.3 0.4 3 1h0.1q1.5 0.6 3 1.2c1 0.4 2 0.8 3.1 1.3h0.1l1.9 0.8h0.1q1.4 0.6 2.8 1.2l1 0.4 1.1 0.5 3 1.3 0.1 0.1 1.2 0.5 1.8 0.8c7.4 3.5 14.5 7 17.5 8.8l1 0.6-1.1 0.3q-0.9 0.2-1.7 0.5-0.9 0.3-1.7 0.6-0.8 0.4-1.6 0.8-0.8 0.3-1.6 0.8-0.9 0.6-1.8 1.2-0.8 0.6-1.7 1.3-0.8 0.7-1.6 1.4-0.7 0.7-1.5 1.5c-5.7 5.8-12.6 14.9-20.5 27.1-1.3 2-2.6 4.2-3.9 6.3-2.8 4.5-5.7 9.3-8.6 14.3q-0.9 1.6-1.9 3.3zm-1.2-6.8l0.2 1c0 0.1 0.1 0.3 0.1 0.4l0.3 1c0 0.2 0.1 0.3 0.1 0.5q0.2 0.6 0.4 1.2 0 0 0.1 0.1 0 0.1 0 0.1 0 0.1 0.1 0.2 0 0 0 0.1 1-1.6 1.9-3.3c2.9-5 5.8-9.8 8.6-14.3q1.9-3.2 3.9-6.3c8-12.3 14.9-21.5 20.7-27.3q0.7-0.8 1.5-1.5 0.8-0.8 1.7-1.5 0.8-0.7 1.7-1.3 0.9-0.7 1.8-1.3 0.7-0.4 1.4-0.7 0.7-0.4 1.4-0.7 0.7-0.3 1.5-0.5 0.7-0.3 1.4-0.5c-3.4-1.9-9.7-5-16.4-8.2l-1.8-0.8-1.2-0.5-2.9-1.3-0.1-0.1-1.2-0.5-0.8-0.4q-1.5-0.6-2.9-1.2h-0.1q-0.9-0.4-1.8-0.8h-0.1q-1.7-0.7-3.2-1.3l-3-1.1c-1.1-0.4-2.2-0.8-3-1.1-3.4-1.1-4.8-1.3-5.4-1.2q0 0 0 0-0.1 0-0.1 0 0 0-0.1 0 0 0 0 0c-3.9 5.4-6.5 14.2-7.5 26q-0.2 2.3-0.4 4.6-0.1 2.3-0.1 4.6-0.1 2.3-0.1 4.6 0 2.3 0.1 4.5c0.1 4.2 0.4 8.4 0.8 12.6l0.2 1.7q0.3 2.6 0.6 5c0 0.3 0 0.6 0.1 0.8l0.1 0.8q0.1 0.7 0.2 1.4c0.1 0.5 0.2 1 0.3 1.5l0.2 1.3 0.3 1.6 0.1 0.6c0 0.2 0 0.3 0.1 0.4l0.1 0.4q0.1 0.4 0.2 0.7z"/><path class="d" d="m133.1 110.6v3.3h-3.3v-3.3z"/><path class="d" d="m131.3 94h0.2v36.5h-0.2z"/><path class="d" d="m130.9 94q0-0.1 0.1-0.2 0-0.1 0.1-0.1 0-0.1 0.1-0.1 0.1-0.1 0.2-0.1 0.2 0 0.3 0.2 0.2 0.1 0.2 0.3 0 0.2-0.2 0.3-0.1 0.2-0.3 0.2-0.1 0-0.2-0.1-0.1 0-0.1-0.1-0.1 0-0.1-0.1-0.1-0.1-0.1-0.2z"/><path class="d" d="m131.4 131c-0.3 0-0.5-0.3-0.5-0.5 0-0.3 0.2-0.5 0.5-0.5 0.3 0 0.5 0.2 0.5 0.5 0 0.2-0.2 0.5-0.5 0.5z"/><path class="d" d="m142 70.7l-2.8 1.7-1.7-2.8 2.8-1.7z"/><path class="d" d="m124 79.5l26-15.6 0.1 0.2-26 15.6z"/><path class="d" d="m149.8 63.6c0.1-0.1 0.3-0.1 0.5 0 0.1 0.1 0.2 0.3 0.2 0.5-0.1 0.2-0.2 0.3-0.4 0.4-0.2 0-0.4-0.1-0.5-0.2q0-0.1-0.1-0.2 0-0.1 0-0.2 0.1-0.1 0.1-0.2 0.1-0.1 0.2-0.1z"/><path class="d" d="m123.8 79.1q0 0.1-0.1 0.2 0 0-0.1 0.1 0 0.1 0 0.2 0 0.1 0.1 0.2 0 0.1 0.1 0.1 0.1 0.1 0.2 0.1 0.1 0 0.1 0 0.1 0 0.2-0.1 0.1 0 0.2-0.1 0-0.1 0-0.1 0.1-0.1 0.1-0.2-0.1-0.1-0.1-0.2-0.1-0.1-0.1-0.1-0.1-0.1-0.2-0.1-0.1 0-0.2 0-0.1 0-0.2 0z"/><path class="d" d="m165.5 76.8v3.3h-3.3v-3.3z"/><path class="a" d="m122.8 113.2q1.1 0 2.1 0 1 0.1 2 0.2 1 0.1 2 0.3 1 0.2 1.9 0.5 0.3 0.1 0.5 0.2 0.3 0.1 0.5 0.2 0.3 0.1 0.5 0.2 0.2 0 0.5 0.2c0.6 0.2 1.2 0.5 1.8 0.8q0.5 0.2 0.9 0.5 0.5 0.2 0.9 0.5 0.4 0.3 0.9 0.6 0.4 0.3 0.8 0.6 0.8 0.6 1.6 1.3 0.7 0.7 1.4 1.4 0.8 0.7 1.4 1.5 0.7 0.8 1.2 1.7 0.6 0.8 1.2 1.6 0.5 0.9 1 1.8 0.4 0.9 0.9 1.8 0.4 0.9 0.7 1.9c-0.6-1.2-1.3-2.4-2-3.5q-0.3-0.4-0.6-0.8-0.3-0.4-0.6-0.8-0.2-0.4-0.6-0.8-0.3-0.4-0.6-0.8-0.6-0.8-1.2-1.5-0.7-0.7-1.4-1.4-0.7-0.7-1.5-1.4-0.7-0.6-1.5-1.2-0.4-0.3-0.8-0.6-0.4-0.3-0.8-0.5-0.4-0.3-0.9-0.5-0.4-0.3-0.8-0.5c-0.6-0.4-1.2-0.6-1.8-0.9q-0.2-0.1-0.4-0.2-0.3-0.1-0.5-0.2-0.2-0.1-0.4-0.2-0.3-0.1-0.5-0.2-0.9-0.3-1.9-0.6-0.9-0.3-1.9-0.5-1-0.2-2-0.4-1-0.2-2-0.3z"/><path class="a" d="m120.3 90.5q0.7 0.2 1.4 0.5 0.7 0.2 1.4 0.5 0.7 0.3 1.4 0.6 0.7 0.3 1.4 0.6 0.7 0.3 1.4 0.6 0.6 0.4 1.3 0.8 0.7 0.3 1.3 0.7 0.7 0.4 1.3 0.8 2.6 1.6 4.9 3.6 2.3 2 4.3 4.2 2.1 2.3 3.8 4.8 1.7 2.5 3.1 5.2 0.7 1.4 1.3 2.7 0.6 1.4 1.1 2.9 0.5 1.4 1 2.8 0.4 1.5 0.8 2.9c-0.7-1.9-1.4-3.7-2.2-5.6q-0.3-0.6-0.6-1.3-0.4-0.7-0.7-1.4-0.3-0.6-0.7-1.3-0.3-0.7-0.7-1.3-1.4-2.6-3.2-5.1-1.7-2.4-3.7-4.6-2-2.2-4.2-4.2-2.3-2-4.7-3.7-1.3-0.8-2.5-1.6-1.3-0.8-2.6-1.5-1.4-0.7-2.7-1.4-1.4-0.6-2.7-1.2z"/><path class="a" d="m140.8 101.4l2 2.6-2.7 2-1.9-2.7z"/><path class="a" d="m149.7 116.3l-13.1-17.6 0.2-0.2 13.1 17.7-0.2 0.1z"/><path class="a" d="m136.3 98.9q-0.1-0.2-0.1-0.4 0.1-0.2 0.2-0.3 0.2-0.1 0.4-0.1 0.2 0 0.3 0.2 0.1 0.2 0.1 0.4 0 0.2-0.2 0.3-0.1 0.1-0.3 0.1-0.2 0-0.4-0.2z"/><path class="a" d="m149.4 116.5q0.1 0.2 0.3 0.2 0.2 0.1 0.4-0.1 0.2-0.1 0.2-0.3 0-0.2-0.1-0.4-0.2-0.1-0.3-0.1-0.2 0-0.4 0.1-0.1 0.1-0.2 0.3 0 0.1 0.1 0.3z"/><path class="a" d="m138.8 116.4l2.6 2-2 2.6-2.6-2z"/><path class="a" d="m144.1 122.6l-10.1-7.7 0.1-0.2 10.1 7.7-0.1 0.2z"/><path class="a" d="m133.8 115.2q-0.1 0-0.1-0.1-0.1-0.1-0.1-0.2 0-0.1 0-0.2 0.1-0.1 0.1-0.2 0.1 0 0.1-0.1 0.1 0 0.2 0 0.1 0 0.2 0 0.1 0 0.2 0.1 0 0 0.1 0.1 0 0.1 0 0.2 0.1 0.1 0 0.2 0 0-0.1 0.1 0 0.1-0.1 0.1-0.1 0.1-0.2 0.1-0.1 0-0.1 0-0.1 0-0.2-0.1z"/><path class="a" d="m143.8 122.9q0.1 0 0.2 0 0.1 0.1 0.2 0.1 0.1-0.1 0.2-0.1 0-0.1 0.1-0.1 0.1-0.2 0.1-0.4 0-0.2-0.2-0.3-0.1-0.1-0.3-0.1-0.2 0-0.3 0.2-0.1 0.1-0.1 0.2-0.1 0.1 0 0.1 0 0.1 0 0.2 0.1 0.1 0.1 0.2z"/><path fill-rule="evenodd" class="d" d="m307.6 150.5l-0.5-0.8-0.6-1.1c-0.6-1-1.2-2-1.8-3.1-2.9-5-5.8-9.8-8.5-14.3-1.3-2.1-2.6-4.2-4-6.2-7.9-12.3-14.8-21.4-20.5-27.1q-0.7-0.8-1.5-1.5-0.8-0.8-1.6-1.4-0.8-0.7-1.7-1.3-0.8-0.7-1.7-1.3-0.8-0.4-1.6-0.8-0.8-0.4-1.6-0.7-0.9-0.4-1.7-0.6-0.8-0.3-1.7-0.5l-1.1-0.3 1-0.6c3-1.8 10-5.4 17.5-8.8l1.7-0.8 1.4-0.6 2.9-1.3h0.1l1.1-0.5 0.9-0.4c1-0.5 1.9-0.9 2.9-1.3h0.1l1.8-0.8h0.1q1.6-0.6 3.2-1.2l3-1.2h0.1q1.6-0.6 3-1.1c2.9-1 4.8-1.3 5.7-1.2q0.1 0 0.2 0 0.1 0 0.2 0.1 0 0 0.1 0 0.1 0.1 0.2 0.1v0.1q0.1 0 0.1 0 0 0 0.1 0 0 0.1 0 0.1 0 0 0.1 0.1c4 5.5 6.6 14.4 7.7 26.5q0.2 2.3 0.3 4.6 0.1 2.3 0.2 4.6 0.1 2.3 0 4.6 0 2.3 0 4.6c-0.2 4.2-0.4 8.4-0.8 12.6l-0.2 1.7q-0.3 2.6-0.6 5l-0.1 0.9-0.1 0.7c-0.1 0.5-0.2 1-0.3 1.5q-0.1 0.8-0.2 1.4l-0.3 1.4q-0.1 0.8-0.3 1.6l-0.1 0.6c0 0.1-0.1 0.3-0.1 0.4l-0.1 0.4c0 0.3-0.1 0.5-0.1 0.7v0.1l-0.3 1c0 0.3-0.1 0.4-0.1 0.6l-0.3 1-0.1 0.5q-0.2 0.6-0.4 1.2-0.1 0.1-0.1 0.3-0.1 0.1-0.1 0.2-0.1 0.2-0.1 0.3-0.1 0.1-0.2 0.2 0 0.3-0.1 0.5zm-47.6-61.4q0.7 0.2 1.4 0.5 0.8 0.3 1.5 0.6 0.7 0.3 1.4 0.6 0.7 0.4 1.3 0.8 1 0.6 1.8 1.2 0.9 0.7 1.8 1.4 0.8 0.7 1.6 1.4 0.8 0.8 1.6 1.6c5.8 5.7 12.7 15 20.6 27.2 1.4 2 2.7 4.2 4 6.3 2.8 4.5 5.6 9.3 8.5 14.3q0.9 1.6 1.8 3.1l0.2 0.2q0.1-0.2 0.2-0.5 0.2-0.5 0.3-1.2 0.1-0.2 0.2-0.4l0.2-1c0-0.1 0.1-0.3 0.1-0.4l0.3-1.2q0.1-0.3 0.2-0.7l0.1-0.4c0-0.1 0-0.2 0.1-0.4l0.1-0.6c0.1-0.5 0.2-1 0.3-1.6l0.2-1.3q0.1-0.7 0.3-1.5l0.2-1.5 0.1-0.7c0-0.2 0.1-0.5 0.1-0.8q0.4-2.4 0.6-5l0.2-1.7c0.4-4.2 0.7-8.4 0.8-12.5q0.1-2.3 0.1-4.6 0-2.3 0-4.6-0.1-2.3-0.2-4.6-0.2-2.3-0.4-4.5c-1-11.9-3.6-20.7-7.5-26l-0.3-0.1c-0.5-0.1-1.9 0.1-5.3 1.2-0.9 0.3-1.9 0.7-3 1.1h-0.1l-2.9 1.2c-1 0.4-2.1 0.8-3.2 1.3h-0.1l-1.9 0.8h-0.1q-1.4 0.6-2.8 1.2l-0.9 0.4-1.1 0.5h-0.1l-2.9 1.4-1.3 0.5-1.7 0.8c-6.7 3.2-13.1 6.3-16.4 8.2z"/><path class="d" d="m314.4 110.6v3.3h-3.3v-3.3z"/><path class="d" d="m312.6 94h0.3v36.5h-0.3z"/><path class="d" d="m312.3 94c0-0.2 0.1-0.4 0.3-0.4 0.1-0.1 0.3-0.1 0.5 0.1 0.1 0.1 0.1 0.3 0.1 0.5-0.1 0.2-0.3 0.3-0.5 0.3q-0.1 0-0.1-0.1-0.1 0-0.2-0.1-0.1 0-0.1-0.1 0-0.1 0-0.2z"/><path class="d" d="m312.7 131c-0.2 0-0.4-0.3-0.4-0.5 0-0.3 0.2-0.5 0.4-0.5 0.3 0 0.5 0.2 0.5 0.5 0 0.2-0.2 0.5-0.5 0.5z"/><path class="d" d="m303.9 67.9l2.8 1.7-1.7 2.8-2.8-1.7z"/><path class="d" d="m294 64.1l0.2-0.2 25.9 15.5-0.1 0.2z"/><path class="d" d="m293.9 64.4q-0.1 0-0.2-0.1 0-0.1 0-0.2-0.1-0.1 0-0.2 0-0.1 0-0.1c0.1-0.2 0.3-0.3 0.5-0.3 0.2 0.1 0.3 0.2 0.4 0.4 0 0.2 0 0.4-0.2 0.5-0.1 0.1-0.3 0.1-0.5 0z"/><path class="d" d="m319.8 79.9c0.2 0.1 0.4 0.1 0.5 0 0.2-0.1 0.3-0.3 0.2-0.5 0-0.2-0.2-0.3-0.4-0.3-0.2-0.1-0.4 0-0.4 0.2q-0.1 0.1-0.1 0.2 0 0.1 0 0.2 0 0 0.1 0.1 0 0.1 0.1 0.1z"/><path class="d" d="m281.9 76.8v3.3h-3.3v-3.3z"/><path class="a" d="m296.6 131q0.4-0.9 0.8-1.9 0.4-0.9 0.9-1.8 0.4-0.9 1-1.7 0.5-0.9 1.1-1.7 0.6-0.9 1.2-1.6 0.7-0.8 1.4-1.6 0.7-0.7 1.4-1.4 0.8-0.7 1.6-1.3 0.4-0.3 0.8-0.6 0.5-0.3 0.9-0.6 0.4-0.2 0.9-0.5 0.4-0.2 0.9-0.5c0.6-0.3 1.2-0.5 1.8-0.8q0.3-0.1 0.5-0.2 0.2-0.1 0.5-0.2 0.2-0.1 0.5-0.1 0.2-0.1 0.4-0.2 0.5-0.1 1-0.3 0.5-0.1 1-0.2 0.5-0.1 1-0.2 0.5-0.1 1-0.2 0.5 0 1-0.1 0.5 0 1 0 0.5-0.1 1-0.1 0.5 0 1 0-0.9 0.2-1.9 0.3-1 0.2-2 0.4-1 0.2-1.9 0.5-1 0.3-1.9 0.6c-0.6 0.2-1.2 0.5-1.8 0.8-0.6 0.3-1.2 0.5-1.8 0.9q-0.4 0.2-0.8 0.5-0.5 0.2-0.9 0.5-0.4 0.2-0.8 0.5-0.4 0.3-0.8 0.6-0.8 0.6-1.5 1.2-0.8 0.7-1.5 1.4-0.7 0.7-1.3 1.4-0.7 0.7-1.3 1.5-0.3 0.4-0.6 0.8-0.3 0.4-0.6 0.8-0.3 0.4-0.6 0.8-0.3 0.4-0.5 0.8c-0.8 1.1-1.4 2.3-2.1 3.5z"/><path class="a" d="m292.7 124.7q0.3-1.4 0.8-2.9 0.4-1.4 0.9-2.8 0.5-1.5 1.2-2.9 0.6-1.3 1.2-2.7 0.7-1.3 1.5-2.6 0.8-1.3 1.7-2.6 0.8-1.3 1.8-2.4 0.9-1.2 1.9-2.4 1-1.1 2.1-2.2 1.1-1 2.3-2 1.1-1 2.3-1.9 1.3-0.9 2.5-1.7 0.7-0.4 1.3-0.8 0.7-0.4 1.3-0.8 0.7-0.3 1.4-0.7 0.7-0.3 1.4-0.6 0.6-0.3 1.3-0.6 0.7-0.3 1.4-0.6 0.7-0.3 1.4-0.5 0.8-0.3 1.5-0.5-1.4 0.6-2.8 1.2-1.3 0.7-2.6 1.4-1.3 0.7-2.6 1.5-1.3 0.8-2.5 1.6-2.5 1.7-4.7 3.7-2.3 2-4.3 4.2-2 2.2-3.7 4.6-1.7 2.5-3.2 5.1-0.3 0.6-0.7 1.3-0.3 0.6-0.7 1.3-0.3 0.7-0.6 1.4-0.3 0.6-0.6 1.3c-0.8 1.9-1.6 3.7-2.2 5.6z"/><path class="a" d="m306 103.4l-2 2.6-2.6-1.9 1.9-2.7z"/><path class="a" d="m294.4 116.3l-0.2-0.1 13.1-17.7 0.2 0.2-13.1 17.6z"/><path class="a" d="m307 98.3c0.1-0.1 0.3-0.2 0.5-0.2 0.2 0.1 0.3 0.2 0.3 0.4 0.1 0.2 0 0.4-0.2 0.5-0.1 0.1-0.3 0.1-0.5 0q-0.1-0.1-0.1-0.2-0.1 0-0.1-0.1 0-0.1 0-0.2 0-0.1 0.1-0.2z"/><path class="a" d="m294 115.9q-0.1 0.1-0.1 0.2 0 0.1 0 0.2 0 0.1 0.1 0.2 0 0 0.1 0.1 0.2 0.1 0.4 0.1 0.2 0 0.3-0.2 0.1-0.1 0.1-0.3-0.1-0.2-0.2-0.4-0.1 0-0.2 0-0.1-0.1-0.2 0-0.1 0-0.2 0 0 0.1-0.1 0.1z"/><path class="a" d="m307.3 119l-2.6 2-2-2.6 2.6-2z"/><path class="a" d="m300.1 122.6l-0.2-0.2 10.1-7.7 0.1 0.2-10 7.7z"/><path class="a" d="m310.4 115.1c-0.1 0.3-0.4 0.3-0.6 0.1-0.2-0.1-0.3-0.4-0.1-0.6 0.2-0.2 0.4-0.3 0.7-0.1 0.2 0.1 0.2 0.4 0 0.6z"/><path class="a" d="m299.7 122.1q0 0.1-0.1 0.2 0 0-0.1 0.1 0 0.1 0.1 0.2 0 0.1 0 0.2 0.1 0 0.2 0.1 0.1 0 0.2 0.1 0 0 0.1-0.1 0.1 0 0.2 0 0.1-0.1 0.1-0.2 0.1-0.1 0.1-0.2 0 0 0-0.1-0.1-0.1-0.1-0.2-0.1-0.1-0.1-0.1-0.1-0.1-0.2-0.1-0.1 0-0.2 0-0.1 0.1-0.2 0.1z"/><path class="d" d="m222 233.1c-33.6-0.7-79.5-13.2-99-45.8l-0.1 0.7q-0.3 1.5-0.5 3.1-0.2 1.5-0.4 3.1-0.1 1.6-0.2 3.1-0.1 1.6-0.1 3.2 0 0.1 0 0.2 0 0-0.1 0.1 0 0.1-0.1 0.1-0.1 0-0.2 0.1-0.1 0-0.2 0 0-0.1-0.1-0.1-0.1-0.1-0.1-0.1-0.1-0.1-0.1-0.2-0.4-1.6-0.6-3.2-0.2-1.6-0.3-3.3-0.1-1.6 0-3.2 0.1-1.7 0.3-3.3 0.1-0.5 0.2-1 0.1-0.5 0.2-1 0.1-0.5 0.2-0.9 0.1-0.5 0.2-1 0-0.2-0.1-0.3-0.5 1.2-1 2.5l-0.1 0.3c-0.9 2-1.7 4.1-2.3 6.2q0 0.1-0.1 0.2-0.1 0.1-0.2 0.2-0.1 0.1-0.2 0.1-0.1 0-0.2 0-0.1-0.1-0.2-0.1-0.1-0.1-0.2-0.2 0-0.1-0.1-0.2 0-0.1 0-0.2l0.1-1q0.1-0.8 0.2-1.6 0.1-0.7 0.2-1.5 0.1-0.8 0.2-1.6 0.2-0.7 0.3-1.5 0.3-0.9 0.5-1.7 0.3-0.9 0.6-1.8 0.3-0.8 0.6-1.7 0.3-0.8 0.7-1.6 0.3-0.8 0.7-1.7 0.3-0.8 0.8-1.6 0.4-0.8 0.8-1.6 0.4-0.7 0.9-1.5 0.4-0.7 0.9-1.4 0.5-0.7 1-1.3 0.4-0.7 0.9-1.4 0.5-0.6 1.1-1.3c12.7-23.8 36.4-65.3 51.6-74.7 9-5.5 31.1-6.3 43.5-6.3 12.4 0 34.5 0.8 43.5 6.3 15.2 9.4 39 50.9 51.7 74.8q0.5 0.6 1 1.3 0.5 0.6 1 1.3 0.5 0.7 1 1.3 0.4 0.7 0.9 1.4 0.4 0.8 0.9 1.5 0.4 0.8 0.8 1.6 0.4 0.8 0.8 1.6 0.4 0.9 0.7 1.7 0.4 0.8 0.7 1.6 0.3 0.9 0.6 1.7 0.3 0.9 0.6 1.8 0.3 0.8 0.5 1.7 0.2 0.8 0.3 1.6 0.1 0.8 0.2 1.5 0.2 0.8 0.3 1.6 0 0.8 0.1 1.6l0.1 1q0 0.1 0 0.2 0 0.1-0.1 0.2-0.1 0.1-0.2 0.1 0 0.1-0.2 0.1-0.1 0-0.2 0-0.1 0-0.2-0.1-0.1 0-0.2-0.1 0-0.1 0-0.2-0.3-0.8-0.6-1.6-0.2-0.8-0.5-1.6-0.3-0.7-0.6-1.5-0.3-0.8-0.6-1.6l-0.1-0.3q-0.5-1.2-1-2.5c0 0.1-0.2 0.2-0.2 0.3q0.1 0.5 0.2 1 0.2 0.5 0.3 1 0.1 0.5 0.2 1 0 0.5 0.1 1 0.2 1.6 0.3 3.2 0.1 1.7 0 3.3-0.1 1.6-0.3 3.3-0.2 1.6-0.6 3.2 0 0.1 0 0.1-0.1 0.1-0.2 0.2 0 0-0.1 0-0.1 0-0.2 0-0.1 0-0.2 0 0 0-0.1-0.1-0.1-0.1-0.1-0.2 0-0.1 0-0.1 0-1.6-0.1-3.2-0.1-1.6-0.2-3.1-0.1-1.6-0.3-3.2-0.2-1.5-0.5-3.1v-0.2q-0.1-0.8-0.3-1.5l0.8-0.2q0.1 0.8 0.2 1.5v0.3q0.3 1.2 0.4 2.5 0.2 1.2 0.3 2.5 0.2 1.3 0.3 2.6 0.1 1.2 0.1 2.5 0.2-1.3 0.3-2.5 0.1-1.3 0.1-2.6 0-1.3 0-2.6-0.1-1.3-0.3-2.5-0.1-0.5-0.1-1-0.1-0.5-0.2-1-0.1-0.5-0.3-1-0.1-0.5-0.2-1v-0.2-0.1q0.4-0.6 0.6-1.2l0.4-0.9 0.4 1.2c0.4 1 0.8 2 1.2 3l0.1 0.3c0.6 1.6 1.3 3.2 1.9 4.9q-0.1-0.7-0.2-1.4-0.1-0.8-0.2-1.5-0.1-0.7-0.2-1.4-0.1-0.7-0.3-1.4-0.2-0.8-0.5-1.7-0.2-0.8-0.5-1.7-0.3-0.8-0.6-1.6-0.3-0.8-0.7-1.6-0.3-0.9-0.7-1.7-0.4-0.8-0.7-1.5-0.4-0.8-0.9-1.6-0.4-0.8-0.9-1.5-0.4-0.7-0.9-1.4-0.4-0.7-0.9-1.3-0.5-0.7-1-1.3-0.5-0.7-1-1.3c-12.8-23.9-36.4-65.3-51.5-74.6-8.8-5.4-30.7-6.2-43.1-6.2-12.3 0-34.2 0.8-43 6.2-15.2 9.3-38.8 50.7-51.5 74.5q-0.5 0.7-1 1.3-0.5 0.7-1 1.3-0.5 0.7-1 1.4-0.4 0.7-0.9 1.4-0.9 1.5-1.7 3.1-0.8 1.6-1.4 3.2-0.7 1.6-1.3 3.3-0.6 1.7-1 3.4-0.2 0.7-0.3 1.4-0.1 0.7-0.2 1.4-0.1 0.7-0.2 1.4-0.1 0.7-0.2 1.4c0.6-1.6 1.3-3.3 1.9-4.9l0.1-0.2q0.5-1.3 1-2.6l0.6-1.6 0.4 0.8q0.3 0.6 0.6 1.2v0.2 0.1q-0.1 0.5-0.2 1-0.2 0.5-0.3 1-0.1 0.5-0.2 1-0.1 0.5-0.1 1-0.2 1.3-0.3 2.6-0.1 1.2-0.1 2.5 0.1 1.3 0.2 2.6 0.1 1.3 0.3 2.5 0-1.3 0.1-2.5 0.1-1.3 0.2-2.6 0.2-1.2 0.4-2.5 0.1-1.2 0.4-2.5l0.5-2.7 0.5 0.9c19 33 65.1 45.6 98.8 46.3 20.9-0.5 42.1-5.1 59.6-13.1l0.3 0.7c-17.7 8-39 12.6-60 13.1z"/><path class="d" d="m220.3 231.2h3.3v3.3h-3.3z"/><path class="d" d="m119.5 198.6h3.3v3.3h-3.3z"/><path class="d" d="m115.1 190.6h3.3v3.3h-3.3z"/><path class="d" d="m119.7 173.7h3.3v3.3h-3.3z"/><path class="d" d="m125.4 165h3.3v3.3h-3.3z"/><path class="d" d="m131.6 153.8h3.3v3.3h-3.3z"/><path class="d" d="m177 90.2h3.3v3.3h-3.3z"/><path class="d" d="m220.3 84.1h3.3v3.3h-3.3z"/><path class="d" d="m119.5 180.5h3.3v3.3h-3.3z"/><path class="d" d="m121.6 185.5h3.3v3.3h-3.3z"/><path class="d" d="m169.6 98.9l-0.1-0.2 18.1-13.9 0.1 0.2-18.1 13.9z"/><path class="d" d="m169.9 99.2q-0.1 0-0.2 0-0.1 0.1-0.2 0.1-0.1-0.1-0.2-0.1 0 0-0.1-0.1-0.1-0.2-0.1-0.4 0-0.2 0.2-0.3 0.1-0.1 0.3-0.1 0.2 0 0.3 0.2 0.1 0.1 0.1 0.2 0.1 0.1 0 0.1 0 0.1 0 0.2-0.1 0.1-0.1 0.2z"/><path class="d" d="m187.9 85.3q0.1 0 0.2-0.1 0-0.1 0-0.2 0-0.1 0-0.2 0-0.1-0.1-0.1 0-0.1-0.1-0.2-0.1 0-0.2 0-0.1 0-0.2 0-0.1 0-0.1 0.1-0.1 0-0.2 0.1 0 0.1 0 0.2 0 0.1 0 0.2 0 0.1 0.1 0.1 0 0.1 0.1 0.2 0.1 0 0.2 0 0.1 0 0.2 0 0.1 0 0.1-0.1z"/><path class="d" d="m324.5 201.9h-3.3v-3.3h3.3z"/><path class="d" d="m328.9 193.9h-3.3v-3.3h3.3z"/><path class="d" d="m324.3 177h-3.2v-3.3h3.2z"/><path class="d" d="m318.6 168.3h-3.3v-3.3h3.3z"/><path class="d" d="m312.4 157.1h-3.3v-3.3h3.3z"/><path class="d" d="m267.1 93.5h-3.3v-3.3h3.3z"/><path class="d" d="m324.5 183.8h-3.3v-3.3h3.3z"/><path class="d" d="m322.4 188.8h-3.3v-3.3h3.3z"/><path class="d" d="m274.4 98.9l-18.1-13.9 0.1-0.2 18.2 13.9-0.2 0.2z"/><path class="d" d="m274.7 98.4q0.1 0.1 0.2 0.2 0 0 0 0.1 0 0.1 0 0.2 0 0.1-0.1 0.2 0 0.1-0.1 0.1-0.1 0-0.2 0.1-0.1 0-0.2-0.1-0.1 0-0.1 0-0.1-0.1-0.2-0.2 0-0.1 0-0.2 0 0 0-0.1 0-0.1 0.1-0.2 0-0.1 0.1-0.1 0.1-0.1 0.2-0.1 0.1 0 0.2 0 0.1 0.1 0.1 0.1z"/><path class="d" d="m256.7 84.6c-0.2-0.1-0.4-0.1-0.6-0.1-0.1 0.1-0.2 0.3-0.2 0.5 0 0.2 0.2 0.4 0.4 0.4 0.2 0.1 0.3 0 0.5-0.2q0 0 0-0.1 0.1-0.1 0.1-0.2-0.1-0.1-0.1-0.2-0.1-0.1-0.1-0.1z"/><path class="d" d="m203.7 232.7h36.6v0.2h-36.6z"/><path class="d" d="m203.8 233.3c-0.3 0-0.5-0.2-0.5-0.5 0-0.2 0.2-0.5 0.5-0.5 0.2 0 0.4 0.3 0.4 0.5 0 0.3-0.2 0.5-0.4 0.5z"/><path class="d" d="m240.3 233.3c-0.3 0-0.5-0.2-0.5-0.5 0-0.2 0.2-0.5 0.4-0.5 0.3 0 0.5 0.3 0.5 0.5 0 0.3-0.2 0.5-0.5 0.5z"/><path class="d" d="m203.7 85.6h36.6v0.3h-36.6z"/><path class="d" d="m203.8 86.2c-0.3 0-0.5-0.2-0.5-0.5 0-0.2 0.2-0.4 0.5-0.4 0.2 0 0.4 0.2 0.4 0.4 0 0.3-0.2 0.5-0.4 0.5z"/><path class="d" d="m240.3 86.2c-0.3 0-0.5-0.2-0.5-0.5 0-0.2 0.2-0.4 0.4-0.4 0.3 0 0.5 0.2 0.5 0.4 0 0.3-0.2 0.5-0.5 0.5z"/><path class="a" d="m182 127c-12.1 0-18.2 9.3-18.2 20.2 0 8.7 7.2 17.7 18.8 17.7 11.6 0 18.8-10.5 18.8-18.8 0-8.2-6.3-19.1-19.4-19.1z"/><path class="d" d="m183.1 129.2c-11.4 0-17.1 8.8-17.1 19 0 8.3 6.8 16.7 17.7 16.7 10.9 0 17.7-9.9 17.7-17.7 0-7.8-5.9-18-18.3-18z"/><path class="a" d="m183.2 133.1c-8.9 0-13.3 6.9-13.3 14.8 0 6.5 5.2 13.1 13.8 13.1 8.5 0 13.8-7.7 13.8-13.8 0-1.9-0.3-3.7-1-5.5-0.8-1.7-1.8-3.2-3.2-4.6-1.3-1.3-2.9-2.3-4.6-3-1.7-0.7-3.6-1-5.5-1z"/><path class="e" d="m187.4 133.3c-4.1-0.1-6.1 3.1-6.1 6.7q0 1.2 0.5 2.3 0.5 1.1 1.4 2 0.9 0.8 2 1.2 1.2 0.5 2.4 0.4 1.2 0 2.4-0.5 1.1-0.5 2-1.4 0.8-0.8 1.3-2 0.5-1.1 0.6-2.4 0-1.2-0.5-2.4-0.5-1.2-1.4-2.1-1-0.9-2.2-1.4-1.1-0.5-2.4-0.5z"/><path class="a" d="m261.1 127c12.1 0 18.2 9.3 18.2 20.2 0 8.7-7.2 17.7-18.9 17.7-11.6 0-18.8-10.5-18.8-18.8 0-8.2 6.3-19.1 19.5-19.1z"/><path class="d" d="m259.9 129.2c11.4 0 17.1 8.8 17.1 19 0 8.3-6.7 16.7-17.7 16.7-10.9 0-17.7-9.9-17.7-17.7 0-7.8 5.9-18 18.3-18z"/><path class="a" d="m259.8 133.1c8.9 0 13.4 6.9 13.4 14.8 0 6.5-5.3 13.1-13.9 13.1-8.5 0-13.8-7.7-13.8-13.8 0-1.9 0.3-3.7 1.1-5.5 0.7-1.7 1.7-3.2 3.1-4.6 1.3-1.3 2.9-2.3 4.6-3 1.7-0.7 3.6-1 5.5-1z"/><path class="e" d="m264.6 133.3c-4-0.1-6.1 3.1-6.1 6.7q0 1.2 0.5 2.3 0.5 1.1 1.4 2 0.9 0.8 2 1.2 1.2 0.5 2.4 0.4 1.2 0 2.4-0.5 1.1-0.5 2-1.4 0.8-0.8 1.3-2 0.5-1.1 0.6-2.4 0-1.2-0.5-2.4-0.5-1.2-1.4-2.1-1-0.9-2.2-1.4-1.1-0.5-2.4-0.5z"/><path class="a" d="m230.2 152.3c-0.1 1.1-7.7 5.4-8.6 5.4-0.9 0-8.4-4.3-8.6-5.4-0.2-1.2 6.8-1.6 8.6-1.6 1.8 0 8.8 0.4 8.6 1.6z"/><path class="a" d="m201.8 161.9q0.5 0.6 1.1 1.3 0.6 0.6 1.2 1.2 0.6 0.7 1.2 1.2 0.6 0.6 1.3 1.2 0.3 0.3 0.6 0.5 0.3 0.3 0.7 0.5 0.3 0.2 0.7 0.5 0.3 0.2 0.7 0.4 0.3 0.2 0.7 0.3 0.4 0.2 0.8 0.3 0.3 0.1 0.7 0.1 0.4 0.1 0.8 0 0.8-0.1 1.5-0.3 0.8-0.3 1.4-0.7 0.7-0.4 1.3-0.9 0.6-0.5 1.1-1.1 0.5-0.7 0.9-1.3 0.5-0.7 0.9-1.4 0.4-0.7 0.7-1.5 0.4-0.7 0.6-1.5l1-2.6 1 2.6q0.2 0.8 0.6 1.5 0.3 0.8 0.7 1.5 0.4 0.7 0.8 1.4 0.4 0.7 0.9 1.4c1.3 1.6 3 3.1 5 3 2-0.2 4-1.5 5.7-2.8q0.7-0.6 1.3-1.1 0.7-0.6 1.3-1.2 0.6-0.6 1.2-1.2 0.6-0.7 1.1-1.3-0.4 0.7-0.9 1.4-0.5 0.8-1.1 1.4-0.5 0.7-1.1 1.4-0.6 0.6-1.2 1.2-0.3 0.3-0.6 0.6-0.4 0.3-0.7 0.6-0.4 0.2-0.7 0.5-0.4 0.3-0.8 0.5-0.3 0.3-0.8 0.5-0.4 0.2-0.8 0.4-0.4 0.1-0.9 0.3-0.4 0.1-0.9 0.1-0.5 0.1-1 0.1-0.4 0-0.9-0.1-0.5-0.1-1-0.3-0.4-0.2-0.9-0.4-0.4-0.2-0.7-0.5-0.4-0.3-0.8-0.6-0.3-0.3-0.6-0.7-0.4-0.3-0.7-0.7-0.2-0.3-0.5-0.7-0.3-0.3-0.5-0.7-0.3-0.4-0.5-0.8-0.2-0.4-0.4-0.8-0.3-0.4-0.5-0.8-0.2-0.4-0.3-0.8-0.2-0.4-0.4-0.8-0.2-0.4-0.3-0.8h1.9q-0.2 0.4-0.4 0.8-0.2 0.4-0.4 0.9-0.1 0.4-0.4 0.8-0.2 0.4-0.4 0.8-0.2 0.4-0.5 0.8-0.2 0.3-0.5 0.7-0.2 0.4-0.5 0.7-0.3 0.4-0.6 0.7-0.3 0.4-0.7 0.7-0.3 0.3-0.7 0.6-0.3 0.3-0.7 0.6-0.4 0.2-0.8 0.5-0.5 0.2-0.9 0.4-0.5 0.1-0.9 0.3-0.5 0.1-1 0.1-0.4 0.1-0.9 0.1-0.5 0-1-0.1-0.4-0.1-0.9-0.2-0.4-0.2-0.9-0.4-0.4-0.2-0.8-0.5-0.4-0.2-0.7-0.5-0.4-0.2-0.7-0.5-0.4-0.3-0.7-0.6-0.3-0.3-0.7-0.6-0.6-0.7-1.1-1.3-0.6-0.7-1.2-1.4-0.5-0.7-1-1.4-0.5-0.8-0.9-1.5z"/><path class="d" d="m222 233.1c-33.6-0.7-79.5-13.2-99-45.8l-0.1 0.7q-0.3 1.5-0.5 3.1-0.2 1.5-0.4 3.1-0.1 1.6-0.2 3.1-0.1 1.6-0.1 3.2 0 0.1 0 0.2 0 0-0.1 0.1 0 0.1-0.1 0.1-0.1 0-0.2 0.1-0.1 0-0.2 0 0-0.1-0.1-0.1-0.1-0.1-0.1-0.1-0.1-0.1-0.1-0.2-0.4-1.6-0.6-3.2-0.2-1.6-0.3-3.3-0.1-1.6 0-3.2 0.1-1.7 0.3-3.3 0.1-0.5 0.2-1 0.1-0.5 0.2-1 0.1-0.5 0.2-0.9 0.1-0.5 0.2-1 0-0.2-0.1-0.3-0.5 1.2-1 2.5l-0.1 0.3c-0.9 2-1.7 4.1-2.3 6.2q0 0.1-0.1 0.2-0.1 0.1-0.2 0.2-0.1 0.1-0.2 0.1-0.1 0-0.2 0-0.1-0.1-0.2-0.1-0.1-0.1-0.2-0.2 0-0.1-0.1-0.2 0-0.1 0-0.2l0.1-1q0.1-0.8 0.2-1.6 0.1-0.7 0.2-1.5 0.1-0.8 0.2-1.6 0.2-0.7 0.3-1.5 0.3-0.9 0.5-1.7 0.3-0.9 0.6-1.8 0.3-0.8 0.6-1.7 0.3-0.8 0.7-1.6 0.3-0.8 0.7-1.7 0.3-0.8 0.8-1.6 0.4-0.8 0.8-1.6 0.4-0.7 0.9-1.5 0.4-0.7 0.9-1.4 0.5-0.7 1-1.3 0.4-0.7 0.9-1.4 0.5-0.6 1.1-1.3c3.1-5.8 6.3-11.6 9.3-17v-0.1l0.6-0.9 1.9-3.3c2.8-5 5.7-9.8 8.5-14.3 1.3-2.2 2.7-4.3 3.9-6.2 8-12.4 14.9-21.5 20.7-27.3q0.7-0.8 1.5-1.6 0.8-0.7 1.7-1.4 0.8-0.7 1.7-1.3 0.9-0.7 1.8-1.3 0.8-0.4 1.6-0.8 0.8-0.5 1.7-0.8 0.9-0.3 1.7-0.6 0.9-0.3 1.8-0.6h0.1c10.8-3 27.6-3.5 36.6-3.5 9 0 25.8 0.5 36.7 3.6q0.9 0.2 1.7 0.5 0.9 0.3 1.8 0.6 0.8 0.4 1.6 0.8 0.9 0.4 1.7 0.8 0.9 0.6 1.8 1.3 0.8 0.6 1.7 1.3 0.8 0.7 1.6 1.5 0.8 0.7 1.6 1.5c5.7 5.8 12.7 14.9 20.6 27.3 1.4 2.2 2.7 4.2 4 6.2 2.7 4.4 5.6 9.2 8.5 14.3q1.3 2.1 2.5 4.2c3 5.4 6.1 11 9.4 17.2q0.5 0.6 1 1.3 0.5 0.6 1 1.3 0.5 0.7 1 1.3 0.4 0.7 0.9 1.4 0.4 0.8 0.9 1.6 0.4 0.7 0.8 1.5 0.4 0.8 0.8 1.6 0.4 0.9 0.7 1.7 0.4 0.8 0.7 1.7 0.3 0.8 0.6 1.6 0.3 0.9 0.6 1.8 0.3 0.8 0.5 1.7 0.2 0.8 0.3 1.6 0.1 0.8 0.2 1.5 0.2 0.8 0.3 1.6 0 0.8 0.1 1.6l0.1 1q0 0.1 0 0.2 0 0.1-0.1 0.2-0.1 0.1-0.2 0.1 0 0.1-0.2 0.1-0.1 0-0.2 0-0.1 0-0.2-0.1-0.1 0-0.2-0.1 0-0.1 0-0.2-0.3-0.8-0.6-1.6-0.2-0.8-0.5-1.6-0.3-0.7-0.6-1.5-0.3-0.8-0.6-1.6l-0.1-0.3q-0.5-1.2-1-2.5c0 0.1-0.2 0.2-0.2 0.3q0.1 0.5 0.2 1 0.2 0.5 0.3 1 0.1 0.5 0.2 1 0 0.5 0.1 1 0.2 1.6 0.3 3.2 0.1 1.7 0 3.3-0.1 1.6-0.3 3.3-0.2 1.6-0.6 3.2 0 0.1 0 0.1-0.1 0.1-0.2 0.2 0 0-0.1 0-0.1 0-0.2 0-0.1 0-0.2 0 0 0-0.1-0.1-0.1-0.1-0.1-0.2 0-0.1 0-0.1 0-1.6-0.1-3.2-0.1-1.6-0.2-3.1-0.1-1.6-0.3-3.2-0.2-1.5-0.5-3.1v-0.1q-0.2-0.8-0.3-1.6l0.7-0.1q0.2 0.7 0.3 1.6v0.1q0.3 1.2 0.4 2.5 0.2 1.2 0.3 2.5 0.2 1.3 0.3 2.6 0.1 1.2 0.1 2.5 0.2-1.3 0.3-2.5 0.1-1.3 0.1-2.6 0-1.3 0-2.6-0.1-1.3-0.3-2.5-0.1-0.5-0.1-1-0.1-0.5-0.2-1-0.1-0.5-0.3-1-0.1-0.5-0.2-1v-0.2-0.1q0.4-0.6 0.6-1.2l0.4-0.9 0.4 1.2q0.6 1.5 1.2 3l0.1 0.3c0.6 1.6 1.3 3.2 1.9 4.8q-0.1-0.7-0.2-1.4-0.1-0.7-0.2-1.4-0.1-0.7-0.2-1.4-0.1-0.7-0.3-1.4-0.2-0.9-0.5-1.7-0.2-0.9-0.5-1.7-0.3-0.8-0.6-1.7-0.3-0.8-0.7-1.6-0.3-0.8-0.7-1.6-0.4-0.8-0.7-1.6-0.4-0.8-0.9-1.5-0.4-0.8-0.9-1.6-0.4-0.6-0.9-1.3-0.4-0.7-0.9-1.4-0.5-0.6-1-1.3-0.5-0.6-1-1.3c-3.3-6.2-6.4-11.8-9.5-17.2q-1.1-2.1-2.4-4.2c-2.9-5.1-5.8-9.9-8.5-14.3-1.2-2-2.5-4-3.9-6.2-8-12.3-14.9-21.4-20.6-27.2q-0.7-0.7-1.5-1.5-0.8-0.7-1.6-1.4-0.9-0.7-1.7-1.3-0.9-0.6-1.8-1.2-0.8-0.5-1.6-0.8-0.8-0.4-1.6-0.8-0.8-0.3-1.7-0.6-0.8-0.3-1.7-0.5c-10.8-3.1-27.5-3.5-36.5-3.5-8.9 0-25.6 0.4-36.4 3.5h-0.1q-0.9 0.2-1.7 0.5-0.9 0.3-1.7 0.6-0.8 0.4-1.6 0.7-0.8 0.4-1.5 0.9-0.9 0.6-1.8 1.2-0.9 0.6-1.7 1.3-0.8 0.7-1.6 1.4-0.8 0.7-1.5 1.5c-5.8 5.8-12.7 14.9-20.6 27.2-1.2 2-2.6 4-3.9 6.2-2.8 4.5-5.6 9.3-8.5 14.3q-1 1.7-1.9 3.3l-0.5 0.9c-3.1 5.4-6.3 11.2-9.5 17.2q-0.5 0.6-1 1.3-0.5 0.6-1 1.3-0.5 0.7-1 1.3-0.4 0.7-0.9 1.4-0.4 0.8-0.8 1.5-0.5 0.8-0.9 1.6-0.4 0.8-0.7 1.6-0.4 0.8-0.7 1.6-0.4 0.8-0.7 1.6-0.3 0.8-0.6 1.7-0.3 0.8-0.6 1.7-0.2 0.8-0.4 1.7-0.2 0.7-0.3 1.4-0.1 0.7-0.2 1.4-0.1 0.7-0.2 1.4-0.1 0.7-0.2 1.4c0.6-1.7 1.3-3.3 1.9-4.9l0.1-0.2q0.5-1.3 1-2.6l0.6-1.6 0.4 0.8q0.3 0.6 0.6 1.2v0.2 0.1q-0.1 0.5-0.2 1-0.2 0.5-0.3 1-0.1 0.5-0.2 1-0.1 0.5-0.1 1-0.2 1.3-0.3 2.6-0.1 1.2-0.1 2.5 0.1 1.3 0.2 2.6 0.1 1.3 0.3 2.5 0-1.3 0.1-2.5 0.1-1.3 0.2-2.6 0.2-1.2 0.3-2.5 0.2-1.2 0.4-2.5l0.5-2.7 0.6 0.9c19 33 65.1 45.6 98.8 46.3 20.9-0.5 42.1-5.1 59.6-13.1l0.3 0.7c-17.7 8.1-39 12.7-60 13.2z"/><path class="a" d="m283.6 160c3.3-0.3 6.6-0.4 9.9-0.5 3.4-0.1 6.7 0 10 0.1 6.6 0.2 13.2 0.8 19.8 1.6q9.9 1.3 19.6 3.5 2.4 0.6 4.8 1.2 2.4 0.6 4.8 1.3 2.4 0.7 4.8 1.5 2.3 0.7 4.7 1.5l-4.8-1.3c-1.6-0.4-3.2-0.9-4.8-1.2l-4.8-1.2c-1.6-0.4-3.2-0.7-4.9-1-3.2-0.7-6.4-1.2-9.7-1.8q-2.4-0.4-4.9-0.8-2.4-0.3-4.9-0.6c-3.3-0.5-6.6-0.8-9.8-1.2l-5-0.4-4.9-0.3q-10-0.6-19.9-0.4z"/><path class="a" d="m285.4 165.3c5.9 0.3 11.8 1.1 17.6 2 5.9 0.9 11.7 2.1 17.5 3.5 5.8 1.3 11.5 3 17.1 4.8q2.1 0.7 4.2 1.5 2.1 0.8 4.2 1.6 2.1 0.8 4.1 1.6 2.1 0.9 4.1 1.8c-2.8-1-5.5-2.1-8.4-3l-4.2-1.4-4.2-1.3c-2.8-0.9-5.7-1.7-8.5-2.5-2.9-0.8-5.7-1.5-8.6-2.2-5.8-1.4-11.6-2.6-17.4-3.7q-4.4-0.8-8.7-1.5-4.4-0.7-8.8-1.2z"/><path class="a" d="m282.8 169.9q1.8 0.4 3.6 0.9 1.8 0.4 3.6 0.9 1.8 0.4 3.6 1 1.7 0.5 3.5 1.1c4.7 1.5 9.4 3.2 14 5 4.6 1.8 9.1 3.8 13.6 6 2.2 1 4.4 2.2 6.6 3.3 2.2 1.1 4.3 2.4 6.5 3.6-4.5-2.1-8.9-4.3-13.5-6.2-4.5-2-9-4-13.6-5.8-4.6-1.8-9.2-3.6-13.8-5.2q-3.5-1.2-7-2.4c-2.4-0.7-4.8-1.5-7.1-2.2z"/><path class="a" d="m160.4 160c-6.6-0.2-13.2 0-19.8 0.4l-5 0.3-4.9 0.4c-3.3 0.3-6.6 0.6-9.9 1.1q-2.4 0.3-4.9 0.7c-1.6 0.2-3.2 0.5-4.9 0.7-3.2 0.6-6.5 1.2-9.7 1.9-1.6 0.3-3.2 0.6-4.8 1l-4.9 1.1c-1.6 0.4-3.2 0.8-4.8 1.3l-4.8 1.3q2.4-0.8 4.8-1.6 2.3-0.8 4.7-1.4 2.4-0.7 4.8-1.3 2.4-0.7 4.8-1.2c6.5-1.5 13-2.6 19.6-3.5 6.6-0.9 13.2-1.4 19.8-1.6q5-0.2 10-0.1c3.3 0 6.6 0.2 9.9 0.5z"/><path class="a" d="m158.6 165.3q-4.4 0.5-8.8 1.2-4.3 0.8-8.7 1.5c-5.8 1.1-11.6 2.3-17.4 3.8-2.9 0.6-5.7 1.4-8.6 2.1-2.8 0.8-5.7 1.6-8.5 2.5l-4.2 1.3-4.2 1.4c-2.9 0.9-5.6 2-8.4 3q2-0.9 4.1-1.7 2-0.9 4.1-1.7 2.1-0.8 4.2-1.6 2.1-0.7 4.2-1.4c5.6-1.9 11.3-3.5 17.1-4.9q8.7-2.1 17.5-3.5c5.8-0.9 11.7-1.7 17.6-2z"/><path class="a" d="m161.2 169.9q-3.5 1.1-7 2.2c-2.4 0.8-4.7 1.6-7 2.4-4.7 1.6-9.3 3.3-13.9 5.2-4.5 1.9-9.1 3.7-13.6 5.8-4.5 2-9 4.1-13.4 6.2q3.2-1.8 6.4-3.6 3.3-1.8 6.7-3.3c4.4-2.2 9-4.1 13.5-6 4.6-1.9 9.3-3.6 14-5q1.8-0.6 3.6-1.1 1.7-0.6 3.5-1 1.8-0.5 3.6-0.9 1.8-0.5 3.6-0.9z"/><path class="a" d="m296.5 224.6q0.8 2 1.4 4 0.6 2.1 0.9 4.2 0.3 2 0.4 4.2 0.1 2.1-0.1 4.2l-6 3q-1.8-1.2-3.4-2.6-1.6-1.3-3.1-2.9-1.4-1.5-2.7-3.2-1.3-1.7-2.3-3.6c4.5-6.5 0.9-14.4 0.9-14.4l0.6-0.3 6 12.4c-0.8 0.7-1 1.8-0.4 2.8 0.6 0.9 1.8 1.2 2.7 0.7 1-0.5 1.4-1.6 1.1-2.6-0.4-1-1.4-1.6-2.5-1.4l-6-12.4 0.6-0.3c0 0 4 7.8 11.9 8.2z"/><path class="a" d="m291.2 244.2l9-4.4 1.9 3.8-9 4.3z"/><path class="a" d="m307.1 240.9h0.8v7.5h-0.8z"/><path class="a" d="m303.8 244.3l7.5-0.1v0.8h-7.5z"/><path class="a" d="m304.6 247l5.3-5.3 0.6 0.6-5.4 5.3z"/><path class="a" d="m304.6 242.3l0.5-0.6 5.3 5.3-0.5 0.6z"/></svg>